<?xml version="1.0" encoding="utf-8"?>
<!-- Generator: Adobe Illustrator 22.1.0, SVG Export Plug-In . SVG Version: 6.00 Build 0)  -->
<svg version="1.1" id="Layer_1" xmlns="http://www.w3.org/2000/svg" xmlns:xlink="http://www.w3.org/1999/xlink" x="0px" y="0px"
	 viewBox="0 0 666 244" style="enable-background:new 0 0 666 244;" xml:space="preserve">
<style type="text/css">
	.st0{fill:#FFFFFF;}
</style>
<g>
	<path class="st0" d="M322.1,136.8C322.2,136.8,322.2,136.8,322.1,136.8c0.1,0,0.1-0.1,0.1-0.1C322,136.6,321.9,136.6,322.1,136.8z"
		/>
	<path class="st0" d="M320.8,138.7c0,0.1,0.1,0.1,0.2,0.1v-1.3c-0.4,0-0.6,0.1-0.4,0.3c0.1,0.2,0.1,0.5-0.2,0.7
		C320.6,138.6,320.8,138.6,320.8,138.7z"/>
	<path class="st0" d="M310.8,167.2c0,0.1-0.1,0.2-0.1,0.3C310.8,167.4,310.8,167.3,310.8,167.2z"/>
	<path class="st0" d="M322.2,136.8c0,0-0.1,0.1-0.1,0.1C322.3,137,322.3,137,322.2,136.8z"/>
	<path class="st0" d="M310.5,167.8c0.1-0.1,0.1-0.3,0.2-0.4c0,0-0.1,0-0.2,0.1C310.3,167.6,310.3,167.7,310.5,167.8z"/>
	<path class="st0" d="M320.7,139.9c0.1-0.2,0-0.2-0.3-0.1c0,0.4-0.1,0.6-0.2,0.4c0,0.4,0.1,0.6,0.2,0.6h0.4c-0.1-0.3-0.1-0.4,0-0.4
		c0.1,0,0.2-0.1,0.2-0.4C320.7,140.2,320.6,140.1,320.7,139.9z"/>
	<path class="st0" d="M318.1,147c0.3-0.2,0.2-0.3-0.2-0.3c-0.1,0.1-0.1,0.3,0,0.6c0.1,0.3,0.3,0.3,0.4,0
		C317.9,147.4,317.8,147.3,318.1,147z"/>
	<path class="st0" d="M259.5,134.8c-0.1-0.1-0.2-0.1-0.2-0.2C259.2,134.9,259.2,134.9,259.5,134.8z"/>
	<path class="st0" d="M315.3,152.2c0-0.1,0.1-0.3,0.2-0.4C315.4,151.7,315.3,151.9,315.3,152.2z"/>
	<path class="st0" d="M300.7,185c0.1,0.1,0.2,0.1,0.3,0c0-0.1,0-0.2,0-0.2c0,0,0,0,0,0C300.8,184.9,300.7,184.9,300.7,185z"/>
	<path class="st0" d="M259.4,134.3c-0.1,0.1-0.1,0.2-0.1,0.3c0,0,0,0,0,0C259.4,134.5,259.4,134.4,259.4,134.3z"/>
	<path class="st0" d="M259.3,133.8c0.1,0.2,0.1,0.4,0.1,0.5c0,0,0,0,0,0C259.6,134.1,259.6,133.9,259.3,133.8z"/>
	<path class="st0" d="M292.1,181.4v-0.2h0.2c-0.3-0.1-0.4-0.3-0.4-0.4c0-0.1-0.1-0.2-0.4-0.2c0,0.3,0.1,0.5,0.2,0.5
		C291.9,181.2,292,181.3,292.1,181.4z"/>
	<path class="st0" d="M258.9,136.3c0.1,0,0.2,0,0.2-0.1C259,136.2,259,136.2,258.9,136.3z"/>
	<path class="st0" d="M259.4,136.3c0.1,0.1,0.1,0.1,0.1-0.2c0-0.3-0.1-0.4-0.4-0.4c0.1,0.3,0.1,0.5,0,0.5
		C259.3,136.1,259.4,136.2,259.4,136.3z"/>
	<path class="st0" d="M291.5,179.9c0-0.1,0-0.2,0-0.3C291.2,179.6,291.2,179.7,291.5,179.9z"/>
	<path class="st0" d="M291.5,179.9c0,0.1,0,0.2,0,0.3C291.7,180.1,291.7,180,291.5,179.9z"/>
	<path class="st0" d="M335.6,150.6c-0.1,0.8-0.1,1.5,0.2,2.2c0-0.7,0.1-1.5,0.2-2.5c0.1-1,0.1-1.7-0.2-2.3
		C335.8,148.9,335.7,149.8,335.6,150.6z"/>
	<path class="st0" d="M335.4,153.5c0,0.3,0.1,0.6,0.4,0.7c-0.1-0.3-0.2-0.5-0.1-0.6c0.1-0.1,0.1-0.3,0.1-0.6
		C335.5,153,335.4,153.2,335.4,153.5z"/>
	<path class="st0" d="M337.1,171.6c-0.3-0.8-0.5-1.7-0.5-2.6c-0.1-0.9-0.3-1.6-0.7-2.2c0.1,0.3,0.2,0.5,0.1,0.7
		c-0.1,0.2-0.1,0.5-0.1,0.7c0.3,0.3,0.5,0.7,0.6,1.4c0.1,0.6,0.1,1.1,0,1.6c0.3-0.1,0.4,0,0.3,0.3
		C336.7,171.8,336.8,171.9,337.1,171.6z"/>
	<rect x="335.8" y="147.1" class="st0" width="0.4" height="0.6"/>
	<path class="st0" d="M335.4,158.2c0.3-0.3,0.4-0.8,0.4-1.5c0-0.7-0.1-1.2-0.4-1.5c0.1,0.7,0.1,1.2-0.1,1.6
		C335.1,157.2,335.1,157.7,335.4,158.2z"/>
	<path class="st0" d="M335.8,162.7c-0.1-1.5-0.1-2.9,0-4.3h-0.4c0,1.4,0,2.8,0,4.3s0.2,2.8,0.6,3.9
		C336,165.5,335.9,164.2,335.8,162.7z"/>
	<path class="st0" d="M337.7,173.5c-0.1-0.3-0.2-0.5-0.2-0.6c0-0.1-0.1-0.3-0.4-0.6C337.1,173.1,337.3,173.5,337.7,173.5z"/>
	<path class="st0" d="M413.8,173.2c0.1,0.3,0.1,0.4-0.1,0.4c-0.2,0-0.4,0.2-0.5,0.4c0.3,0,0.4-0.1,0.5-0.2c0.1-0.1,0.2-0.2,0.5-0.2
		C414.3,173.3,414.1,173.2,413.8,173.2z"/>
	<path class="st0" d="M390.8,160.2c-0.2,0.2-0.2,0.4-0.2,0.7c0,0.3,0.2,0.5,0.5,0.7c0-0.3,0-0.6,0.1-0.9
		C391.3,160.4,391.1,160.2,390.8,160.2z"/>
	<path class="st0" d="M391.5,164.4c0,0.3,0,0.5-0.1,0.6c-0.1,0.1-0.1,0.3-0.1,0.6c0.3,0.2,0.5,0,0.6-0.3
		C392,164.9,391.8,164.6,391.5,164.4z"/>
	<path class="st0" d="M403.1,169.8c-0.1,0.2-0.1,0.4-0.2,0.6c0.1,0,0.1,0.1,0.2,0.1V169.8z"/>
	<path class="st0" d="M403.2,149.4c-0.3,0.2-0.2,0.5,0.2,0.8c0-0.3,0.1-0.7,0.2-1.1c0.2-0.4,0.1-0.6-0.2-0.6
		C403.6,148.9,403.6,149.1,403.2,149.4z"/>
	<path class="st0" d="M391.5,160.7c0.1-0.1,0.2-0.2,0.3-0.3c0,0.2,0.1,0.4,0.2,0.5c0-0.8-0.1-1.2-0.2-1.4h-0.5
		C391.3,160.3,391.4,160.7,391.5,160.7z"/>
	<path class="st0" d="M391.8,164.4c0.2-0.2,0.2-0.5,0.2-0.9c-0.3-0.2-0.5-0.1-0.6,0.2C391.3,164,391.5,164.3,391.8,164.4z"/>
	<path class="st0" d="M402.8,152.3c-0.2,0.2-0.1,0.2,0.2,0.2c0-0.6,0.1-1,0.2-1.2c0.2-0.2,0.2-0.5,0.2-0.9c-0.5,0-0.7,0.2-0.6,0.5
		c0.1,0.3,0,0.5-0.1,0.7C402.9,151.9,402.9,152.2,402.8,152.3z"/>
	<path class="st0" d="M459.4,173.6c0,0-0.1,0-0.1,0c0,0,0,0,0,0C459.4,173.6,459.4,173.6,459.4,173.6z"/>
	<path class="st0" d="M468.9,150.2c-0.1-0.1-0.1-0.2-0.2-0.3C468.6,150,468.7,150.1,468.9,150.2z"/>
	<path class="st0" d="M456.4,180.5c0,0.4,0.2,0.6,0.6,0.6v-0.6H456.4z"/>
	<path class="st0" d="M457,181.1c-0.1,0.1-0.3,0.3-0.4,0.5c-0.1,0.2-0.1,0.4,0.2,0.5c0-0.1,0.1-0.3,0.3-0.5
		C457.4,181.4,457.3,181.2,457,181.1z"/>
	<path class="st0" d="M456,178.8v0.4c0.1-0.1,0.2-0.1,0.3,0C456.2,179.1,456.1,179,456,178.8z"/>
	<path class="st0" d="M457,179.4c-0.1,0-0.2,0.1-0.2,0.4c0.3,0.1,0.5,0,0.5-0.4c0.1-0.4,0-0.5-0.3-0.2V179.4z"/>
	<path class="st0" d="M456.3,179.5c-0.1,0.3,0,0.5,0.3,0.3c0-0.3-0.1-0.5-0.2-0.5c0,0-0.1-0.1-0.1-0.1
		C456.3,179.3,456.3,179.4,456.3,179.5z"/>
	<path class="st0" d="M456.3,179.2C456.3,179.2,456.3,179.2,456.3,179.2C456.3,179.2,456.3,179.2,456.3,179.2z"/>
	<path class="st0" d="M457.3,176.7c0,0.1,0.2,0.4,0.6,0.8C457.9,177,457.7,176.7,457.3,176.7z"/>
	<path class="st0" d="M456.6,178.1C456.6,178.2,456.6,178.2,456.6,178.1C456.6,178.2,456.6,178.2,456.6,178.1z"/>
	<path class="st0" d="M449.1,98c0,0.3,0,0.5,0.1,0.5C449.2,98.3,449.1,98.2,449.1,98z"/>
	<path class="st0" d="M464.6,163.6c0,0.2,0.1,0.2,0.4-0.1c-0.1-0.3-0.1-0.7,0.2-1.3c-0.1,0-0.2,0-0.3-0.1c-0.1-0.1-0.2-0.1-0.3-0.1
		c0,0.3-0.1,0.5-0.2,0.6c-0.1,0.1-0.2,0.4-0.2,0.8C464.4,163.4,464.6,163.4,464.6,163.6z"/>
	<path class="st0" d="M467.9,155.4c-0.1,0.3-0.4,0.6-0.8,1c0.3,0,0.4,0.1,0.3,0.2c-0.1,0.1,0,0.1,0.3,0c0-0.1,0.1-0.2,0.2-0.1
		c0.1,0.1,0.2,0,0.2-0.1c-0.3-0.3-0.3-0.5-0.1-0.6C468.2,155.7,468.2,155.5,467.9,155.4z"/>
	<path class="st0" d="M457.3,180.3c0,0.6,0.1,0.8,0.4,0.8C457.7,180.5,457.5,180.3,457.3,180.3z"/>
	<path class="st0" d="M456.4,181c0-0.1-0.1,0-0.4,0.1c-0.1,0.3-0.1,0.4,0.2,0.4c0.3,0,0.4-0.1,0.4-0.4
		C456.5,181.1,456.4,181.1,456.4,181z"/>
	<path class="st0" d="M449.1,98c0-0.3,0-0.8,0-1.1C449.1,97.2,449,97.6,449.1,98z"/>
	<path class="st0" d="M456.6,178c0,0.1,0,0.1-0.1,0.2c0,0,0,0,0.1-0.1C456.9,177.7,456.9,177.7,456.6,178z"/>
	<path class="st0" d="M456.4,178.3c-0.1,0.1-0.2,0.2-0.2,0.3h0.2h0.2c-0.3,0-0.3-0.2-0.1-0.4C456.5,178.2,456.5,178.2,456.4,178.3z"
		/>
	<path class="st0" d="M609.9,141c0-0.3-0.3-0.3-0.4-0.1c-1.8,3.3-4.5,6.6-6.3,8.4c-2,2-3.3,4.1-5.9,3.9c-0.9-0.3-1.5-2.8-1.3-4.7
		c0.2-1.9,0.6-3.7,1-5.4c0.5-1.7,1-3.5,1.7-5.1c0.6-1.7,1.1-3.5,1.6-5.4c0.1,0,0.2-0.1,0.2-0.2c0-0.1,0.1-0.2,0.2-0.2
		c1.1-3.9,1.6-7.8,1.6-11.8c-0.1-4-1.1-7.5-3-10.6c0,0-3.7-2.6-5,0c0,0,0,0,0,0c-2.1,2.5-8.5,17-10.5,20.1c-2,3.1-3.8,6.2-5.6,9.4
		c-1.8,3.2-3.6,6.4-5.2,9.6c-1.7,3.2-3.3,6.1-5,8.8c-0.3,0.4-0.7,1.1-1.1,2.2c-0.5,1-1,2.1-1.7,3.1c-0.6,1-1.4,2-2.2,2.7
		c-0.8,0.8-1.7,1.1-2.5,1.1c-0.1,0.3-0.8,0.1-1.2-0.4c-0.8-3.2-1.1-5.1-1-8.2c0.1-3.1,0.3-6.1,0.7-9.2c0.3-2.2,0.7-4.3,1.1-6.4
		c0,0,0,0,0,0c-0.3-0.4-0.4-1-0.3-1.8c0.3-0.1,0.6-0.3,0.8-0.6c0-0.1,0-0.1,0-0.2c0,0,0,0,0,0c-0.4-0.2-0.6-0.4-0.5-0.8
		c0.1-0.4,0-0.7-0.2-0.9c0.6-0.4,1-1,1.3-1.6c0.4-2.5,0.7-5,0.7-5c0.4-1.3,0.8-2.6,1.3-4c0.9-2.7,1.7-5.5,2.3-8.5
		c0.6-2.9,0.6-5.8,0.8-8.7c0.2-2.9-0.6-5.6-1.4-8.3c-0.2-0.3-1.3-0.9-1.8-1.4c-0.5-0.5-1-0.9-1.6-1.4c0-0.1-0.6-0.1-0.9-0.4
		c-0.3-0.3-0.8-0.7-0.9-0.7c-0.3,0.1-0.5,0.1-0.6,0.1c-0.1,0.1-0.3,0.2-0.6,0.3c-0.2,0.1-3.8-0.6-4.4-0.5c-0.6,0.1-2.2,0-2.4,0.1
		c-0.4,0.3-2.3,1.6-2.7,1.9c-4.9,5.9-7,5.8-19.2,27c-1.2,2.2-2.8,4.1-3.9,6.4c0.6-2.4,1.1-4.7,1.6-7.1c0.5-2.4,0.9-4.8,1.2-7.3
		c0.6-1.5,1.3-3,2.1-4.3c0.8-1.3,1-3,0.6-4.9c-0.8-0.7-1.7-1-2.6-0.9c-0.9,0.1-1.7,0.3-2.5,0.7c-0.8,0.4-1.5,0.9-2.3,1.4
		c-0.7,0.4-1.6,1.1-2.3,1.5l0.1-0.3c-0.1,0.1-0.1,0.2-0.2,0.4c0,0-0.1,0-0.1,0.1c-0.1,0.3-0.3,0.7-0.4,1
		c-4.4,8.8-12.8,26.3-22.3,37.1c-0.4,0.5-0.9,0.9-1.3,1.3c-2,2-4.2,3.7-6.7,5.2c-0.6-2.1-0.7-4.1-0.5-6c0.2-1.9,0.3-1.4,0.7-3.2
		c0.5-1.7,1-3.5,1.7-5.1c0.6-1.7,1.1-3.5,1.6-5.4c0.1,0,0.2-0.1,0.2-0.2c0-0.1,0.1-0.2,0.2-0.2c1.1-3.9,1.6-7.8,1.6-11.8
		c-0.1-4-2.1-10.1-3-10.6l-2.6-0.9c-0.3-0.1-0.5-0.1-0.7,0.2c-0.3,0.7-0.9,0.9-1.7,0.6h0l0,0c-5.3,3.1-13.9,16-16.9,21.2
		c-3,5.2-5.8,10.7-8.5,16.4c-2.7,5.7-5.4,11.2-8.4,16.5c-0.7,2.4-1.6,4.4-2.8,6.1c-1.2,1.7-2.2,3.6-3,5.9c-0.7,0.1-1,0.5-1,1.1
		c0,0.6-0.1,1.1-0.4,1.4h-0.4c-0.6,0.8-1.2,1.8-1.8,2.8c-0.6,1-1.3,1.8-2,2.4c-0.7,0.6-1.4,0.8-2,0.6c-0.6-0.1-1.2-1-1.8-2.7
		c-1-2.6-1.6-5.5-1.9-8.6c-0.3-3.1-0.4-6.1-0.3-9.2c0.1-3.1,0.2-6.1,0.4-9.1c0.2-3,0.4-5.8,0.5-8.3c0.3-1.4,0.4-2.6,0.4-3.8
		c0-1.1,0.3-2.4,0.8-3.8c-0.1,0-0.3-0.3-0.6-0.8h0.6c1.1-6.7,2.3-12.9,3.7-18.6c1.3-5.7,2.8-11.5,4.3-17.4c0.3-2.2,0.7-4.3,1.4-6.1
		c0.6-1.8,0.2-1,0.6-2.9c0,0.3,0.1,0.4,0.4,0.4c-0.3-0.6-0.3-1.3-0.1-2.2c0.1-0.4,0.1-0.1,0,0.4c0.1-0.3,0.2-0.6,0.4-0.9
		c0.5-0.7,0.7-1.6,0.5-2.7c0.6-0.6,0.9-1.3,1.1-2.3c0.2-1,0.4-2,0.6-2.9c0.2-1,0.5-1.9,0.9-2.7c0.4-0.8,0.2-1.4,1.1-1.7l1.2-0.4
		c2-0.4,3.9-0.8,5.8-1.3c1.9-0.4,3.7-1,5.5-1.7c0-0.3,0-0.5,0.1-0.5c0.1-0.1,0.7-0.3,0.7-0.6c2.8-1.4,5.4-2.3,9-3
		c3.6-0.6,7-1.4,10.2-2.4c3.6-0.6,7.1-0.7,10.6-0.5c3.4,0.2,6.9,0.6,10.4,1.1c0.5,0.1,0.4-0.7,0-1c-3.2-2.4-6.9-3.9-11.1-4.6
		c-4.2-0.7-8.6-0.9-13.2-0.7c-4.6,0.2-9.2,0.7-13.8,1.6c-4.6,0.8-8.8,1.6-12.5,2.3c0.7-2.4,2-7.4,2.6-9.2c0.6-1.8,1.2-3.8,1.6-6.1
		c0.1-2.4-0.6-4-2.2-5c-1.6-1-3.3-1.7-5.1-2.1c-0.2,0-0.4,0.4-0.8,0.4c-0.4,0-0.8,0.1-1,0.2c-2,3.5-3.7,7.2-5.1,11.3
		c-1.5,4-3.7,10.9-5.3,14.8c-0.8,0.1-1.5,0.3-2.1,0.4c-0.6,0.1-1.4,0.3-2.5,0.4c-2.5,0.7-5.3,1.5-8.3,2.3c-3,0.8-6.1,1.7-9.2,2.5
		s-6.3,1.5-9.4,2c-3.1,0.5-6.2,0.7-9.1,0.7c-1.5,0-3.1-0.2-4.7-0.5c-1.6-0.3-2.7-1.2-3.2-2.6c-0.1-0.3-0.9,0.1-1-0.2
		c-0.1-0.3-0.4-0.4-0.8-0.4c-1.3,0.4-2.1,1.3-2.5,2.7c0.6,3.1,2,5.4,4.3,7c2.3,1.6,4.6,3,7,4.1c2.4,0.6,5,0.8,7.8,0.8
		c2.9,0,5.2-0.3,7-1c1.8,0.1,3.7-0.2,5.6-1c2-0.8,3.9-1.3,5.9-1.5c2-0.6,3.9-1.2,5.9-1.9c2-0.7,3.8-1.3,5.4-1.9
		c-3.6,11.3-5.4,17.6-8.4,30.3c-0.1,0.4-0.2,0.8-0.3,1.1c-1.2,3.7-2.2,7-2.5,8.6c-0.9,4.7-5.7,17.5-6.1,18.1
		c-0.4,0.7-2.6,6.9-4.2,10c-1.6,3.1-3.9,7.4-4.5,8.4c-0.7,0.9-3,4.5-4.1,6c-0.4,0.5-1.7,1.9-2.7,2.1c-0.5,0.1-1.4-0.7-1.6-2.6
		c-0.2-0.2-0.4-0.1-0.4,0.1c-0.1,0.3-0.1,0.3-0.1,0c-0.2-0.6,0-0.9,0.4-0.8c0.4,0.1,0.4-0.1,0.1-0.6c0,0.3-0.1,0.5-0.4,0.5
		s-0.3-0.2-0.3-0.5c0.3,0.3,0.6,0.2,0.9-0.5c-0.2-1.2-0.3-2.3-0.4-3.3c-0.1-0.9-0.4-4.8-0.7-6c0.3,0,0.6,2.9,0.5,3.1
		c-0.1,0.2,0,0.3,0.4,0.3c-0.3-0.8-0.6-4.4-0.5-5.2c0.1-0.9,0-1.5-0.3-2c-0.2,0.2-0.2,0.3-0.2,0.5c0,0.2-0.2,0.2-0.5,0.2
		c0-0.8,0.6-2.6,0.8-2.6c0.3-0.2,0.5-0.2,0.5,0c0,0.2,0.2,0.2,0.5,0c0-0.3-0.2-0.7-0.5-1.1c-0.3-0.4-0.2-0.7,0.2-1.1
		c-0.2-0.2-0.3-0.2-0.3-0.2c-0.1,0-0.2-0.1-0.4-0.2c0.3-0.3,0.4-0.5,0.4-0.6c-0.1-0.1-0.2-0.4-0.4-0.8c0.8,0.3,1.1,0.3,0.9-0.1
		c-0.2-0.4-0.3-0.8-0.5-1.3c0.2,0,0.2,0,0.2-0.1c0-0.1,0.1-0.1,0.2-0.1c0.2,0.2,0.2,0.3,0.1,0.6c-0.1,0.2,0,0.3,0.4,0.1
		c0-0.5-0.2-0.9-0.7-1.2c0.6-0.6,1.1-0.5,1.4,0.5c0.2-0.5,0.2-0.7,0-0.8c-0.2-0.1-0.3-0.3-0.5-0.6c0.3-0.3,0.5-0.3,0.5,0
		c0,0.3,0.2,0.4,0.5,0.2c-0.2-0.3-0.2-0.6-0.1-0.8c0.1-0.2,0-0.4-0.4-0.6c0.3-0.3,0.5-0.7,0.7-1.1c0.2-0.4,0.4-0.7,0.7-0.8
		c-0.2-0.3-0.3-0.4-0.5-0.1c-0.2,0.2-0.2,0.2-0.2-0.1c0.2-0.3,0.7-0.6,0.7-0.9c0-0.3,0.2-0.3,0.5,0c0-0.5,0.1-0.8,0.2-0.9
		c0.2-0.2,0.2-0.4,0.2-0.7c-0.3-0.2-0.5-0.1-0.5,0.2c0,0.3-0.2,0.5-0.5,0.7c0.3-0.3,0.3-0.6,0.1-0.8c-0.2-0.2-0.2-0.5,0.1-0.8
		c0,0.5,0,0.6,0.1,0.4c0.1-0.2,0.2-0.4,0.4-0.6c0,0.6,0.2,0.9,0.5,0.7c0.2-1.7,0.4-3.2,0.8-4.6c0.2-0.5,0.1-0.4,0-0.2
		c0.2-1.2,0.6-2.3,1.4-3.3c0.8-1.1,1.2-2.5,1.2-4.2c0.8-1.1,1.3-2.5,1.6-4.1c0.3-1.6,0.4-3.3,0.4-5.1c-0.1-1.8-0.4-3.5-0.8-5.1
		c-0.5-1.6-1.1-2.9-1.9-3.9c-0.5,0-0.9-0.1-1.2-0.3c-0.3-0.2-0.8-0.4-1.4-0.4c-0.3-1.1-2.2-1.2-3.3-1.2c-1,0.1-1.6,0.6-2.3,1.3
		c-0.1,0.1-0.1,0.5-0.1,0.6c0.2,1.4-0.9,3.3-1.6,4.4c-0.2,0.4-0.4,0.8-0.6,1.2c-0.6-0.3-1.1-0.6-1.6-0.8c0.5,0.4-1-0.3-1.7-0.3
		c-0.3-0.1-0.4-0.1-0.3-0.2c-1.3-0.2-2-0.3-3.6-0.4c-0.7,0.1-0.9,0.2-1.8,0.3c-0.6-0.1-1.8,0.3-2.6,0.4c0.2,0.1-0.6,0.2-1.4,0.3
		c-0.5,0.2-1,0.3-1.5,0.5c-0.3,0.1-0.5,0.2-0.8,0.3c-0.4,0.2-0.5,0.3-0.8,0.4c-0.4,0.2-0.9,0.3-1.5,0.3l-0.9,0.1
		c-0.3,0.1-0.7,0-1.1,0.3c-0.4,0.2-0.8,0.5-1.1,0.7c-0.4,0.2-0.8,0.5-1.2,0.8l-0.3,0c-0.7,0.5-1.3,1.1-1.8,1.7
		c-0.5,0.6-1.1,1.2-1.6,1.7c-1.1,1.2-2.1,2.3-3,3.5c-0.3,0.3-0.7,0.7-1.1,1c-0.4,0.4-0.7,0.9-0.9,1.3c-0.5,1-0.7,1.4-0.9,2.1
		c-0.2,0.4-0.4,0.6-0.5,0.7c-0.3,0.6-0.7,1.3-0.9,1.8c-0.3,0.5-0.6,1-0.8,1.6l-0.1,0c-0.5,1-1.2,2.4-1.9,3.5
		c-0.1,0.4-0.5,1.5-0.2,1.1c-0.2,0.5-0.3,0.2-0.4,0.7l0-0.5c-0.4,1-0.7,2-1,3c-1.6,3.3-3.2,6.8-4.6,10.4c-3.3,8.3-7,16.3-11.1,24.2
		c-0.3,0-0.5,0.1-0.5,0.4c-0.1,0.3-0.2,0.3-0.5,0.2c-0.6,1.4-1.2,2.7-1.9,3.9c-0.7,1.2-1.6,2.2-2.7,3c-0.4,0.4-1.3-2.3-1.9-3.5
		c-0.6-1.2-1.2-2-1.5-3c-0.8-4.6-1.6-9.5-2.3-14.7c-0.7-5.2-0.4-10.7,0.8-16.4c0,0.4,0.1,0.5,0.4,0.2c0.1-0.6,0.1-0.9,0-1.1
		c-0.1-0.2-0.2-0.7-0.2-1.4c0.4-0.8,0.7-1.8,0.9-2.8c0.2-1,0.5-2.1,0.7-3c-0.4-0.1-0.6,0-0.4,0.4c0.1,0.4,0.1,0.6-0.2,0.6
		c0-0.3-0.1-0.5-0.2-0.6c-0.1,0.7-0.2,1.3-0.3,1.9c-0.1,0.6-0.2,1.1-0.3,1.7c0-1,0.1-1.9,0.2-2.7c0.1-0.8,0.4-1.5,0.8-2.1
		c0-0.3,0-0.5-0.1-0.6c-0.1-0.1-0.1-0.3-0.1-0.6c2-9.3,3.9-18.5,6-27.6c2-9.1,3.9-18.2,5.8-27.4c0.4-4.5,1.5-8.3,3.1-11.6
		c1.7-3.3,3.2-6.7,4.6-10.4c-0.1-0.8-0.1-1.7,0-2.6c0.1-0.9,0.1-1.9,0-3c-0.6-2-1.8-3.7-3.7-5.1c-1.9-1.5-4.2-2-7-1.6
		c-1.2,0.3-3.8,5.2-4.7,8.6c-0.9,3.3-2.1,6.6-3.4,9.6c-0.1,0.3-0.1,0.4,0.1,0.4c0.2,0-1,3.7-1,3.9c-3.3,10.1-5.4,18.2-7.6,28.4
		c-1.3,4.9-3.1,11.4-4.8,15.3c-1.6,3.6-4.5,14.8-6.5,18.2c0,0.7-0.2,1.4-0.7,2c-0.5,0.6-0.9,1.3-1.1,2c0-0.1,0-0.2-0.1-0.3
		c-0.1-0.1-0.1,0-0.1,0.1c0.1,0.3,0,0.7-0.3,1.4c-0.3,0.6-0.5,1.1-0.5,1.4l-0.4-0.4c-0.3,1.8-0.9,3.5-1.8,4.9
		c-0.9,1.5-1.5,3.2-1.8,5.1c-0.1,0-0.2,0-0.2-0.1c0-0.1-0.1,0-0.4,0.1c0.1,0.7,0,1.1-0.4,1.4c-0.4,0.2-0.5,0.7-0.2,1.4
		c-0.7,1.3-1.4,2.6-2.1,4c-0.7,1.4-1.2,2.8-1.5,4.2c-2.1,4.2-3.9,8.6-5.5,13.3c-1.6,4.7-3.8,8.8-6.6,12.4c-0.3,0-0.4-0.1-0.3-0.4
		c0.1-0.3,0-0.5-0.3-0.6c-0.1,0.1-0.2,0.3-0.2,0.4c0,0.1-0.1,0.3-0.2,0.4c0-0.6-0.1-0.6-0.3-0.2c-0.2,0.4-0.4,0.5-0.5,0.2
		c0.6-0.6,0.6-1.3,0-2.3c0.1,0.4,0.1,0.8-0.2,1c-0.3-0.6-0.4-1.1-0.4-1.6c0-0.1,0-0.2,0-0.3c0-0.2,0-0.3,0-0.5c-0.1,0-0.2,0-0.4,0
		c0.1-0.3,0.1-0.4-0.1-0.4c-0.2,0-0.2-0.1-0.1-0.4c0.4,0.1,0.5,0,0.3-0.5c-0.2-0.5-0.1-0.5,0.3-0.1c0-0.3-0.1-0.5-0.3-0.7
		c-0.2-0.2-0.2-0.5,0.1-0.7c0,0.1,0.1,0.3,0.3,0.4c0.2,0.1,0.3,0.1,0.3-0.2c-0.3-0.3-0.4-0.6-0.4-1c0-0.4-0.1-0.3-0.4,0.2
		c0-0.3-0.1-0.4-0.2-0.4c0.4-0.4,0.6-0.9,0.6-1.5c-0.3,0-0.5,0.1-0.5,0.3c-0.1,0.2-0.2,0.2-0.5-0.1c0.1-0.1,0.2-0.2,0.2-0.3
		c0-0.1,0.1-0.2,0.2-0.3c0,0.3,0.1,0.4,0.2,0.4c0.7-0.8,0.8-1.7,0.4-2.7c-0.4-1-0.3-1.8,0.4-2.5c-0.1-0.1-0.4-0.2-0.8-0.2
		c0-0.3,0.1-0.5,0.2-0.6c0.1-0.1,0.2-0.3,0.2-0.6c-0.3-0.1-0.3-0.4,0-0.8c0.3-0.4,0.2-0.6-0.2-0.4c0.3-0.4,0.3-0.8,0.1-1.1
		c-0.2-0.3-0.3-0.8-0.3-1.4c0.3-0.1,0.4-0.1,0.3,0.1c-0.1,0.2,0,0.4,0.1,0.5c0-0.6-0.1-1-0.3-1.4c-0.2-0.3-0.2-0.7-0.1-1.1
		c0,0.3,0.1,0.4,0.4,0.4c-0.3-3.2-0.3-6.3-0.2-9.4c0.1-3.1,0.1-6-0.2-8.8c0,0.4,0.1,0.5,0.4,0.2c-0.4-0.4-0.4-1,0-1.7
		c-0.4,0.1-0.7,0.1-0.8-0.2c0.1,0,0.2-0.2,0.2-0.6c0.1,0,0.2,0.1,0.3,0.3c0.1,0.2,0.1,0.1,0.1-0.3c0.3-0.1,0.3-0.2,0-0.1
		c-0.3,0.1-0.4,0-0.4-0.1c0.6-0.3,0.7-0.8,0.5-1.6c-0.2-0.8-0.2-1,0.1-0.7c-0.1-0.3-0.2-0.5-0.2-0.7c0-0.2-0.1-0.4-0.2-0.5h0.4
		c0-2.2,0.2-4.6,0.6-7c0.4-2.4,0.8-4.9,1-7.4c0.3-2.5,0.3-5,0.1-7.4c-0.2-2.4-1-4.8-2.4-7c-0.8-1.1-2.1-1.7-3.9-1.7
		c-1.7,0-5.1-0.4-5.3-0.2c-1.5,1.1-3,2.2-4.4,3.2c-1.4,1-2.5,2.4-3.3,4.1c-0.8,0.3-1.3,0.8-1.5,1.6c-0.1,0.8-0.7,1.2-1.7,1.4
		c-0.1,0.4-0.4,1-0.7,1.7c-0.3,0.7-0.7,0.9-1.1,0.6c0.3,0.7,0.2,1.3-0.3,1.7c-0.5,0.4-0.9,0.8-1.1,1c-1.3,2.5-2.5,5-3.9,7.4
		c-1.3,2.4-2.8,4.8-4.3,7.2c0-0.3-0.1-0.5-0.2-0.6c-0.1-0.1-0.2-0.4-0.2-0.8c-0.3,0-0.6-0.1-0.8-0.2c0,0.3,0.1,0.5,0.3,0.6
		c0.2,0.1,0.4,0.3,0.5,0.6c-0.1,0-0.3,0.1-0.6,0.4c0.3,0.1,0.4,0.3,0.3,0.6c-0.1,0.3-0.1,0.5-0.1,0.6c-0.4-0.3-0.8-0.4-1.3-0.4
		c0.3-0.1,0.4-0.6,0.4-1.5c0.3,0,0.4,0.1,0.3,0.4c-0.1,0.3,0,0.6,0.3,0.8c0.3-0.3,0.3-0.5,0-0.6c-0.3-0.1-0.3-0.3,0-0.4
		c-0.1,0-0.3-0.1-0.6-0.4l0.4-0.4c-0.4,0-0.6-0.3-0.6-0.8c0.3-0.1,0.4-0.1,0.3,0.2c-0.1,0.3,0,0.3,0.3,0.2c0.1-0.3,0.1-0.5-0.2-0.6
		c-0.3-0.1-0.3-0.3,0-0.4c0,0.3,0.2,0.4,0.6,0.4c0.1-0.1,0.1-0.3-0.2-0.4c-0.3-0.1-0.3-0.3,0-0.4c0.3,0.3,0.4,0.5,0.4,0.7
		c0,0.2,0.1,0.3,0.1,0.5c0-0.1,0-0.2,0.1-0.2c0.1,0,0.2-0.1,0.2-0.2c-0.3-0.6-0.6-1.3-0.8-2.1c-0.1,0.1-0.2,0.3-0.2,0.4
		c0,0.1-0.1,0.2-0.4,0.2c0.3-0.6,0.3-1.1,0.2-1.6c-0.1-0.5-0.1-0.9,0-1.4c0.1,0.1,0.1,0.1,0.2,0.2c-0.1,0-0.1,0.1-0.2,0.3
		c0.3,0.4,0.5,0.7,0.7,0.8c0.2,0.1,0.5,0.3,0.7,0.6c-0.4-0.1-0.6,0.1-0.6,0.8c0,0.7,0.1,0.9,0.4,0.6c0-0.3-0.1-0.4-0.2-0.4
		c-0.1,0-0.1-0.1,0-0.4c0.3-0.3,0.6-0.4,0.8-0.4c0.1-0.7,0.2-1.2,0.2-1.6c0-0.3,0-0.7,0-0.9c-0.1,0.1-0.2,0.3-0.2,0.4
		c0,0.1-0.1,0.3-0.2,0.4c-0.1-0.3-0.3-0.4-0.4-0.3c-0.1,0.1-0.2,0-0.2-0.3c0.4,0.1,0.8-0.1,1-0.8c-0.3-0.1-0.4-0.1-0.4,0.1
		c0,0.2-0.1,0.4-0.4,0.5c0.1-0.3,0.2-0.5,0.1-0.7c-0.1-0.2,0-0.2,0.3-0.1c-0.1-0.3-0.1-0.6,0-0.8h-0.6c0.3-0.4,0.4-0.8,0.4-1
		c0-0.3,0-0.7,0-1.3c0.3,0.4,0.5,0.5,0.5,0.1c0.1-0.3,0.2-0.6,0.3-0.7c0,0.4,0.1,0.7,0.2,0.8c0.1-0.7,0.3-1.4,0.5-2
		c0.2-0.6,0.2-1.3-0.1-2c0.4,0.4,0.7,0.4,0.8,0c0-0.3-0.1-0.3-0.3-0.2c-0.2,0.1-0.4,0-0.5-0.4c0.3,0.1,0.5,0.1,0.5-0.1
		c0.1-0.2,0-0.4-0.3-0.5c0.4-0.1,0.6-0.3,0.5-0.6c-0.1-0.3,0.1-0.3,0.5,0c-0.1-0.3-0.1-0.6,0.2-0.9c0.3-0.3,0.3-0.7,0-1.2
		c-0.3,0.1-0.3,0.3-0.1,0.5c0.2,0.2,0.2,0.4-0.1,0.5c-0.3-0.3-0.3-0.6-0.1-1c0.2-0.4,0.5-0.8,0.7-1c0,0.3-0.1,0.5-0.2,0.6
		c-0.1,0.1-0.1,0.2,0.2,0.2c0.4-0.7,0.3-1.5-0.2-2.3c0.3-0.1,0.5-0.1,0.5,0.2c0.1,0.3,0.2,0.3,0.3,0c-0.4-0.3-0.5-0.5-0.1-0.7
		c0.3-0.2,0.4-0.4,0.1-0.5c0,0.1-0.1,0.3-0.2,0.4c0-0.3-0.1-0.4-0.2-0.3c-0.1,0.1-0.3,0-0.4-0.1c0.4-0.4,0.7-0.8,0.8-1.3
		c0.1,0,0.2,0.2,0.1,0.5c-0.1,0.3,0,0.4,0.1,0.1c0.1-0.3,0.1-0.5,0-0.5c-0.1-0.1-0.2-0.2-0.2-0.5c0.3,0,0.5-0.3,0.5-0.8
		c0.1-0.6,0.2-1,0.5-1.3c-0.3-0.1-0.4-0.1-0.4,0.2c0,0.3-0.1,0.3-0.2,0c0.1-0.3,0.3-0.5,0.6-0.6c0.3-0.1,0.2-0.3-0.2-0.4
		c0,0.3-0.1,0.4-0.2,0.4c1.5-4.9,2.9-10.1,4.2-15.8c1.3-5.6,1.5-7.8,3.1-12.9c0.7-2.9,1.5-5.9,2.4-9c0.9-3.1,1.7-6,2.4-8.8
		c0-1.7,0.3-3.3,0.9-4.9c0.6-1.6,2.5-3.5,2.2-4.1c-0.3-0.7-0.6-1.3-0.8-1.8c-0.3-0.5-0.5-1.1-0.6-1.8c-0.6-0.3-1.2-0.5-2-0.5
		c-0.8-0.1-1.5-0.1-2.2-0.1c-1.5,0.3-2.7,0.8-3.4,1.6c-0.8,0.8-3,1.7-3.2,2.2c-2.9,7.1-5.9,14.5-8.8,22.3c-0.8,2-1.4,3.8-2,5.5
		c-1.9,4.6-7.7,19.1-8.4,22.8c-0.8,4.4-6.4,16.6-6.8,17.2c-0.4,0.6-2.3,6.6-3.7,9.5s-3.4,7.1-4,8c-0.6,0.9-2.6,4.2-3.7,5.7
		c-0.4,0.5-1.5,1.8-2.4,2c-0.5,0.1-1.3-0.7-1.4-2.4c-0.2-0.1-0.3-0.1-0.4,0.1c-0.1,0.3-0.1,0.3-0.1,0c-0.1-0.6,0-0.8,0.3-0.8
		c0.3,0.1,0.4-0.1,0.1-0.6c0,0.3-0.1,0.4-0.3,0.4c-0.2,0-0.3-0.1-0.3-0.4c0.3,0.3,0.5,0.1,0.8-0.4c-0.1-1.2-0.2-2.2-0.3-3.1
		c-0.1-0.9-0.4-4.6-0.6-5.7c0.3,0,0.5,2.7,0.4,3c-0.1,0.2,0,0.3,0.3,0.3c-0.3-0.7,0.3-4.7,0.3-5.5c0.1-0.8,0-1.4-0.3-1.9
		c-0.1,0.1-0.2,0.3-0.2,0.4c0,0.1-0.1,0.2-0.4,0.2c0-0.7,0.5-2.4,0.7-2.4c0.3-4.7,0.8-6,1.7-8.2c0.2-0.4,0.3-0.6,0.6-0.8
		c-0.1-0.3-0.3-0.3-0.4-0.1c-0.1,0.2-0.2,0.2-0.2-0.1c0.1-0.3,0.6-0.6,0.6-0.9c0-0.3,0.1-0.3,0.4,0c0-0.4,0.1-0.7,0.2-0.9
		c0.1-0.1,0.2-0.4,0.2-0.7c-0.3-0.1-0.4-0.1-0.4,0.2c0,0.3-0.1,0.5-0.4,0.7c0.3-0.3,0.3-0.6,0.1-0.8c-0.2-0.2-0.2-0.5,0.1-0.8
		c0,0.4,0,0.6,0.1,0.3c0.1-0.2,0.2-0.4,0.3-0.6c0,0.6,0.1,0.8,0.4,0.7c0.1-1.6-0.5-3.1-0.2-4.3c0.1-0.5,0.1-0.4,0-0.2
		c0.2-1.1,0.6-2.2,1.2-3.2c0.7-1,1-2.4,1-4c0.7-1,1.2-2.3,1.4-3.9c0.3-1.6,0.4-3.2,0.3-4.9c-0.1-1.7,0.6-3.3,0.2-4.9
		c-0.4-1.6-1-2.8-1.7-3.7c-0.4,0-0.8-0.1-1-0.3c-0.3-0.2-0.7-0.3-1.2-0.3c-0.3-1-3-0.4-4-0.3c-1,0.1-0.7,1.1-1.4,1.8
		c-1.2,1.4-1.7,2.2-2.4,3.4c-0.7,1.2-1,2.4-1,3.6c0.3-0.3,0.4-0.6,0.4-0.8c0-0.2,0.1-0.4,0.2-0.6c0,0.7-0.2,1.4-0.6,2
		c0-0.3-0.1-0.4-0.2-0.4c-0.3,0.7-0.6,1.4-0.8,2c-0.1,0.2-0.1,0.4,0,0.6c-0.9-1-2-1.7-2.5-2c0.5,0.4-0.9-0.2-1.5-0.2
		c-0.3-0.1-0.3-0.1-0.2-0.2c-1.2-0.2-1.8-0.2-3.2-0.2c-0.7,0.1-0.8,0.2-1.6,0.4c-0.5-0.1-1.5,0.4-2.3,0.5c0.2,0.1-0.7,0.5-1.4,0.6
		l0.2-0.3c-0.4,0.2-0.8,0.3-1.3,0.5c-0.2,0.1-0.5,0.2-0.7,0.3c-0.3,0.2-0.5,0.3-0.6,0.4c-0.4,0.2-0.8,0.3-1.3,0.4l-0.8,0.1
		c-0.3,0.1-0.6,0.1-1,0.4c-0.3,0.2-0.6,0.5-1,0.7c-0.3,0.2-0.7,0.5-1,0.8l-0.7,0c-0.6,0.5-1.1,1.1-1.5,1.7c-0.4,0.6-0.9,1.1-1.3,1.7
		c-0.9,1.1-1.7,2.3-2.5,3.4c-0.2,0.3-0.6,0.7-0.9,1c-0.3,0.4-0.5,0.9-0.7,1.2c-0.4,1-0.5,1.3-0.7,2c-0.1,0.4-0.3,0.5-0.4,0.7
		c-0.3,0.6-0.5,1.3-0.7,1.7c-0.2,0.5-0.5,1-0.6,1.5l0.3,0c-0.4,1-1.4,2.4-1.9,3.4c-0.1,0.3-0.4,1.5-0.1,1c-0.1,0.5-0.2,0.2-0.3,0.7
		l0-0.5c-0.8,2.5-1,4.9-0.8,7.5c-0.1,0.8-0.2,3.7-0.1,5.2c0.2,0.8,0.4,2.3,0.7,2.9l-0.1,0.1c0.2,1.1,0.6,2.6,1.1,4.1
		c0.3,0.8,0.4,0.8,0.7,1.4l-0.1,0.1c0.3,0.7,0.5,0.8,0.7,1c0,0,0,0.1,0,0.1c0.1,0.5,1.1,0.5,1.2,0.8c0.1,0.2,0.2,0.4,0.4,0.5
		c0.5,0.2,0.7,0.4,0.8,0.3c0,0,0.3,0.3,0,0.1c0.5,0.4,0.8,0.6,1.1,0.8c0.2,0.1,0.6,0,0.7,0c0.2,0.2,0.3,0.3,0.5,0.5
		c0,0.1-0.5-0.4-0.3,0c0.3,0.2,0.6,0.5,1,0.7c0.1,0.1,0.2,0.2,0.3,0.2l0.5,0.1c0.3,0,0.6,0.1,1,0.1c0.6,0.2,1.4,0.4,1.3,0.4
		c0.2,0.1,0.4,0.1,0.5,0.1c0.2-0.1,0.5-0.2,0.8-0.2c0.5-0.1,1.1,0,1.9-0.3c0.4-0.2,0.6-0.5,0.8-0.7l0.6-0.6c0.4-0.4,0.8-0.8,1.3-1
		c0.5-0.3,1-0.6,1.5-1c0.3-0.2,0.5-0.4,0.8-0.7c0.4-0.5,0.4-0.7,0.5-1c0.3-0.6,0.5-1.1,0.8-1.6c0.3-0.5,0.6-1.1,0.8-1.3
		c0.3-0.3,0.6-0.7,0.9-1.1c0.3-0.5,3.1-7.1,3.2-7.5c0.8-2.4,1.2-3.3,1.4-3.5c-0.2,2.3-0.4,4.9-0.4,7.9c0.3,0,0.4-0.1,0.3-0.2
		c-0.1-0.1,0-0.1,0.3,0.2c0-0.6,0-1.1-0.1-1.4c-0.1-0.4,0-0.8,0.3-1.2c-0.6-0.6-0.6-1.3-0.2-2c0.3,0.1,0.3,0.4,0.2,0.9
		c-0.1,0.4-0.1,0.8,0,1.1c0.1,0.6,0.2,1.5,0.3,2.8c0.1,1.3-0.2,1.7-0.9,1.4c-0.3,0.3-0.3,0.6-0.2,0.9c0.1,0.3,0.2,0.6,0.2,0.9
		c0.3,0.1,0.4,0.1,0.3-0.1c-0.1-0.2,0-0.3,0.3-0.1c-0.1,2.1,0.1,4,0.8,5.7c0.7,1.7,1,3.3,1,4.8c-0.8-1.2-1.3-2.4-1.4-3.8
		c-0.1-1.3-0.4-2.7-0.8-4c0.1,2.1,0.5,4.3,1.1,6.8c0.6,2.4,2.1,3.9,3.6,5.2c0.5,0.6,1.3,1.3,2,1.1c1.5,0.9,3.9,0.2,5.4,0.3
		c1.4,0.1,2.6,0.2,3.3-0.6c0.1-0.2,4.6-3,4.7-3.1c-0.2,0-0.4-0.1-0.4-0.4c0.2,0,0.3,0,0.3,0.1c-0.1,0.1,0,0.1,0.3,0.1
		c0-0.7,0.2-1.3,0.7-1.8c0.5-0.5,0.8-1.2,1-1.8c0-0.1-0.1-0.2-0.3-0.2c-0.2,0-0.2-0.1-0.1-0.4c0.2,0,0.4,0.1,0.4,0.4
		c0,0.3,0.1,0.5,0.4,0.6c-0.1-0.3-0.1-0.4,0.2-0.4c0.2,0,0.2-0.1,0-0.2c-0.3-0.4-0.2-0.9,0.3-1.5c0.5-0.6,2-2.3,2-2.6
		c0.2,0,0.4,0.1,0.4,0.2c0,0.1,0.1,0.2,0.2,0.2c0.2-0.3,0.2-0.4,0-0.4c-0.2,0-0.4-0.1-0.4-0.4c0.1-0.3,0.3-0.5,0.4-0.8
		c0.2-0.3,0.2-0.4,0.1-0.4c0,0.1-0.1,0.2-0.2,0.2c-0.1,0-0.2-0.1-0.2-0.2c0.1-0.3,0.2-0.4,0.3-0.3c0.1,0.1,0.2,0,0.5-0.1
		c0-0.7,0.2-1.3,0.7-1.8c0.1,0.1,0.1,0.2-0.1,0.3c-0.2,0.1-0.1,0.2,0.1,0.3c0.1-0.4,0.2-0.9,0.4-1.4c0-0.1,0.1-0.3,0.1-0.4
		c-0.1,0.1-0.1,0.3-0.2,0.4c0,0,0,0,0,0c0,0,0.1-0.1,0.1-0.1c0-0.1,0.1-0.2,0.1-0.2c0.1-0.1,0.1-0.1,0,0c0.1,0,0.1,0,0.2,0
		c0-0.1,0-0.2,0-0.3c0.5-0.9,0.9-2,1.4-3.3c0.1-0.1,0.2-0.2,0.3-0.3c0-0.1,0-0.3,0-0.4c0.2-0.5,0.4-1.1,0.6-1.6
		c0.1-0.2,0.2-0.4,0.3-0.7c0.2-0.4,0.3-0.9,0.5-1.3c0.2-0.1,0.4-0.3,0.6-0.5c0.4-0.4,0.4-0.8,0-1.2c0.2-0.1,0.4-0.4,0.5-0.7
		c0.1-0.2,0-0.4-0.1-0.5c0-0.1,0-0.1,0.1-0.2c0.1,0,0.2-0.1,0.2-0.2c0.1,0,0.1-0.3,0.3-0.6c0.2-0.3,0.3-0.6,0.4-0.8
		c0.1-0.2,0.3-0.3,0.1-0.6c0.1,0,0.2,0,0.3,0c-1,8.5-1.2,17.2-0.6,26c-0.3,0.1-0.3,0-0.2-0.3c0.1-0.3,0.1-0.5-0.2-0.3v1
		c0.4,0,0.7,0.1,0.7,0.4c0.1,0.3,0.1,0.6,0,0.8c-0.1,0.3-0.1,0.6-0.1,0.8c0,0.3,0.1,0.5,0.4,0.6c0-0.1-0.1-0.3-0.2-0.4
		c-0.1-0.1-0.1-0.3,0.2-0.4c0.3,1.1,0.6,2,1,2.7c-0.3,0.3-0.4,0.5-0.4,0.6c0.4,0.7,1,1.5,1.9,2.4c0.8,0.9,1.7,1.7,2.6,2.3
		c0.9,0.6,1.9,1,2.9,1c1,0.1,2-0.4,2.8-1.4c0.7-1.4,1.3-2.9,1.8-4.4c0.5-1.5,1.1-2.9,2-4c0-0.6-0.1-0.9-0.2-1
		c1.8-2.6,3.3-5.4,4.6-8.4c1.3-2.9,2.6-5.9,4-8.8c1-1.3,1.8-2.7,2.4-4.4c0.6-1.7,1.2-3.3,1.8-4.8c1.5-1.4,2.8-3.2,3.9-5.3
		c1-2.2,4.3-4.8,4.5-4.3c-0.1,4.5-0.4,8.8-0.7,12.7c-0.3,4.2-0.6,8.4-0.8,12.5c-0.2,4.2-0.3,8.4-0.3,12.7c0,4.3,0.3,8.8,1,13.7
		c0.4,2.4,0.9,4.7,1.4,7.1c0.5,2.4,1.1,4.6,1.9,6.7c0.8,2.1,1.8,3.9,3,5.4c1.3,1.5,2.9,2.6,5,3.3c0-0.4,0.4-0.5,1.3-0.1
		c0.8,0.3,1.2,0.2,1-0.5c0.1,0,0.2,0.1,0.2,0.2c0,0.1,0.1,0.2,0.4,0.2c0-0.6,0.1-0.8,0.2-0.8c0.3,0.3,0.3,0.5,0.1,0.6
		c-0.2,0.1-0.2,0.2,0.1,0.2c0.4-0.3,0.9-0.8,1.5-1.7c0,0.1,0.1,0.3,0.2,0.4c0,0.1-0.1,0.2-0.2,0.1c-0.1-0.1-0.2,0-0.2,0.3
		c0.4,0.1,0.6,0,0.5-0.4c-0.1-0.4,0-0.6,0.3-0.6c0,0.6,0.1,0.8,0.2,0.8c-0.1-0.4-0.1-0.7,0-0.7c0.1-0.1,0.3-0.2,0.6-0.5
		c-0.3,0-0.4-0.1-0.4-0.3c0-0.2,0.1-0.3,0.4-0.3v0.6c0.3-0.4,0.3-0.7,0-0.8c-0.3-0.1-0.3-0.4,0-0.8c0.1,0.3,0.2,0.5,0.3,0.5
		c0.1,0.1,0.2,0.2,0.3,0.5l0.4-0.8c0.1,0,0.2,0.1,0.3,0.3c0.1,0.2,0.2,0.2,0.3-0.1c-0.2-0.2-0.2-0.4,0-0.6c0,0,0-0.1-0.1-0.1
		c-0.1-0.2-0.2-0.2-0.3,0.1c-0.1-0.1-0.1-0.3,0-0.4c0.1-0.1,0.3-0.2,0.6-0.2c0-0.3-0.1-0.5-0.4-0.5c-0.3-0.1-0.3-0.3-0.2-0.7
		c0.3,0.6,0.6,0.9,0.8,1c0,0.1,0,0.2-0.1,0.3c0,0-0.1,0.2-0.1,0.3c0.4-0.3,0.6-0.6,0.6-1c-0.1,0-0.2-0.2-0.2-0.6
		c0.3-0.1,0.5-0.3,0.5-0.4c0.1-0.1,0.2-0.2,0.5-0.2c-0.1,0.1-0.2,0.3-0.1,0.5c0.1,0.2,0,0.3-0.3,0.3c0-0.1-0.1-0.2-0.2-0.3
		c-0.1-0.1-0.2,0-0.2,0.3c0.3,0.3,0.5,0.3,0.6,0.2c0.1-0.1,0.3-0.1,0.6,0.2c0.1-0.4,0.1-0.7,0-0.7c-0.1-0.1-0.1-0.2,0-0.5
		c0.1,0.3,0.3,0.3,0.6,0l-0.4-0.4c0.7-0.3,1.1-0.8,1.1-1.5c0.1-0.7,0.2-1.3,0.5-1.9c0.3,0.3,0.3,0.5,0.1,0.7
		c-0.2,0.2-0.2,0.4,0.1,0.5c0-0.6,0.1-1,0.4-1.3c0.3-0.3,0.3-0.6,0.2-0.8c0.1,0.3,0.2,0.4,0.3,0.3c0.1-0.1,0-0.2-0.1-0.5l0.4,0.4
		c0.8-1.5,1.6-3.2,2.2-4.9c0.6-1.7,1.3-3.4,2-4.9c-0.6-0.6-0.4-1,0.4-1.3c0,0.1,0,0.1,0.1,0.2c0.4-1.1,0.8-2.2,1.2-3.3
		c0.4-1.4,0.7-2.7,0.8-4c0.1,0.1,0.3,0.2,0.4,0.2c0.1-0.3,0.2-0.5,0.3-0.6c0.1-0.1,0-0.3-0.3-0.6c0.3,0,0.4,0.1,0.4,0.2
		c0,0.1,0.1,0.1,0.4-0.2c0-0.3-0.1-0.5-0.2-0.6c-0.1-0.1-0.1-0.3,0.2-0.6c0,0.1,0,0.3,0,0.5c0,0.2,0.1,0.2,0.2-0.1
		c-0.1-0.3,0-0.7,0.3-1.2c0.3-0.5,0.4-0.9,0.1-1.4c0.3,0.1,0.4,0.1,0.4-0.1c0-0.2,0.1-0.4,0.2-0.5c0-0.3,0-0.6-0.1-0.9
		c-0.1-0.3,0-0.4,0.3-0.1c0-0.1-0.1-0.3-0.2-0.5c-0.1-0.2-0.1-0.4,0.2-0.5c0.3,0,0.3,0.1,0.1,0.3c-0.2,0.2-0.1,0.3,0.3,0.3
		c0.1-0.3,0.1-0.6,0-0.9c-0.1-0.3-0.1-0.7,0.2-0.9c0.3,0,0.3,0.1,0.2,0.4c-0.1,0.3-0.1,0.4,0.2,0.4v-2.1c0.1,0,0.2,0.1,0.2,0.2
		c0,0.1,0.1,0.1,0.4,0c-0.3-0.4-0.2-0.7,0.1-0.9c0.3-0.2,0.4-0.6,0.1-1.2c0.1-0.1,0.3-0.2,0.4-0.2c0.1,0,0.3-0.1,0.4-0.4
		c-0.4,0-0.6-0.2-0.6-0.5c0-0.3,0-0.7,0-1.2c0-0.4,0-0.8-0.1-1.1c-0.1-0.3-0.2-0.5-0.5-0.5c0.3-0.1,0.4-0.3,0.4-0.5
		c0-0.2,0.1-0.3,0.4-0.3c0.1,0.3,0.1,0.4-0.1,0.4c-0.2,0-0.3,0.1-0.3,0.4c0.3,0.1,0.5,0.1,0.5-0.1c0.1-0.2,0.1-0.2,0.1,0.1
		c-0.3,0.3-0.3,0.6-0.1,1c0.2,0.4,0.2,0.8-0.1,1c0.2-0.2,0.3-0.3,0.3-0.3c-0.1,0.1,0,0.2,0.3,0.3c0.1-0.1,0.2-0.6,0.2-1.3
		c-0.1-0.3-0.2-0.3-0.3-0.2c-0.1,0.1-0.2,0.1-0.3-0.2c0.3,0,0.4-0.1,0.3-0.3c-0.1-0.2,0-0.3,0.3-0.3c0.1,0.3,0.1,0.5,0,0.5
		c-0.1,0.1-0.1,0.1,0.2,0.1c0.3,0,0.4-0.1,0.3-0.3c-0.1-0.2,0-0.3,0.3-0.3c0-0.7-0.1-1.1-0.4-1.3c0.7-0.3,1-0.5,0.9-0.7
		c-0.1-0.2,0-0.6,0.3-1.2c-0.3,0-0.5,0.2-0.5,0.5c-0.1,0.4-0.3,0.5-0.7,0.5c0-0.1,0-0.3-0.1-0.5c-0.1-0.2,0-0.4,0.1-0.5
		c0.1,0.4,0.3,0.6,0.4,0.6c0-0.3,0-0.5-0.1-0.5c-0.1-0.1-0.1-0.2-0.1-0.5c0.3,0,0.4,0.1,0.4,0.2c0.1-0.4,0.2-0.9,0.2-1.4
		c0-0.5,0.2-0.6,0.6-0.3c0-0.3-0.1-0.5-0.2-0.6c-0.1-0.1-0.2-0.3-0.2-0.6c0.4-0.6,0.6-1.2,0.6-1.9c0.1,0.6,0.3,1,0.4,1.4
		c0.1,0.3,0.1,0.8,0,1.4c0.4-0.3,0.6-0.6,0.6-0.9c0-0.3,0.1-0.6,0.3-0.9c-0.1,0-0.1,0-0.3-0.1c0.3-0.6,0.2-0.8-0.2-0.8
		c0-0.1,0.1-0.2,0.1-0.3c0.1-0.2,0-0.6-0.3-1.1c0.3,0,0.4,0.1,0.3,0.4c-0.1,0.3,0,0.3,0.3,0.2c0-0.7,0.1-1,0.4-1
		c0,0.4,0.1,0.6,0.2,0.6c0.3-0.3,0.2-0.5-0.2-0.7c-0.4-0.2-0.6-0.6-0.6-1.1c0.3,0.1,0.4,0.1,0.4,0c0-0.1,0.1-0.1,0.4,0
		c0,0.1,0,0.2-0.1,0.2c-0.1,0-0.1,0.1-0.1,0.4c0.3-0.1,0.4-0.2,0.6-0.3c0,0.1,0,0.2,0,0.4c0,0-0.1,0-0.1,0c-0.1,0.1-0.2,0.3-0.2,0.6
		c0.1,0,0.2,0,0.3-0.1c0,0.2-0.1,0.5-0.1,0.7c-0.2,0.2-0.4,0.4-0.6,0.6c0.2,0,0.4,0,0.6-0.1c-0.4,3.9-0.8,7.8-1,11.8
		c-0.4,6.8-0.3,13.4,0.2,19.6c0.6,6.2,2,11.8,4.2,16.8c0.6,1.3,1.3,2.5,2.2,3.8c0.9,1.3,2,2.3,3.2,3.2c1.3,0.9,2.6,1.6,4.1,2
		c1.5,0.4,3.2,0.3,5.1-0.2c-0.1-0.3-0.1-0.5,0-0.5c0.1-0.1,0.3-0.2,0.6-0.5c-0.3,0.6-0.2,0.8,0.2,0.8c0.3-0.7,0.6-1.2,0.8-1.5
		c0.3-0.3,0.6-0.6,1-1c0.3,0.3,0.2,0.5-0.1,0.7c-0.3,0.2-0.4,0.5-0.1,0.7c0.1-0.4,0.3-0.7,0.5-0.7c0.2-0.1,0.5-0.2,0.7-0.5
		c0.1,0.3,0.1,0.4-0.1,0.4c-0.2,0-0.2,0.1-0.1,0.4c0.4-0.3,0.8-0.4,1-0.2c0.1-0.6,0.3-0.9,0.4-1c0.1-0.1,0.3-0.3,0.6-0.6
		c0.1,0.3,0.1,0.5-0.1,0.5c-0.2,0.1-0.2,0.1,0.1,0.1c1.4-1.4,2.6-3,3.8-4.8c1.1-1.8,2.2-3.7,3.1-5.8c1-2,1.9-4,2.7-6
		c0.8-2,1.8-3.8,2.9-5.6c1-3.8,2.2-7.4,3.6-10.9c0.1,0.7,0.3,1.4,0.5,2c0.2,0.9,0.4,0.9,0.6,1.5l-0.1,0.1c0.3,0.7,0.5,0.9,0.7,1.1
		c0,0,0,0.1,0,0.1c0.1,0.5,0.1,0.6,0.3,1.2c-0.3-0.5-0.5-1-0.8-1.3c0.1,0.2,0.1,0.4,0.2,0.7c0.1,0.3,0.2,0.5,0.3,0.7
		c0.2,0.4,0.5,0.7,0.6,1c0.1,0.2,0.2,0.4,0.4,0.5c0.5,0.2,0.8,0.4,0.9,0.4c0,0,0,0,0.1,0c0.5,0.4,0.8,0.8,1.1,1c0.3,0.1,0.2,0,0.3,0
		c0.2,0.2,0.4,0.4,0.6,0.6c0,0.1-0.6-0.4-0.3-0.1c0.4,0.2,0.7,0.6,1.1,0.8c0.1,0.1,0.2,0.2,0.3,0.2l0.6,0.1c0.6,0.1,1.3,0.2,1.9,0.2
		c0.4,0,0.7,0,1-0.1c0.5-0.1,0.9-0.2,1.3-0.2c-0.3,0.1-0.5,0.3-0.7,0.4c-0.3,0.1-0.6,0.3-0.9,0.3c-0.5,0.2-0.7,0.3-0.7,0.3
		c0.4-0.1,0.8-0.1,1.2-0.2c0.3-0.1,0.6-0.1,0.9-0.2c0.6-0.1,1.2,0.1,2.2-0.2c0.5-0.2,0.8-0.5,1-0.7l0.7-0.6c0.5-0.4,0.9-0.8,1.5-1
		c0.6-0.3,1.2-0.6,1.8-1c0.3-0.2,0.6-0.4,0.9-0.7c0.5-0.5,0.5-0.7,0.7-1c0.3-0.6,0.7-1.1,1-1.7c0.3-0.5,0.7-1.1,1-1.3
		c0.4-0.3,0.8-0.7,1.1-1.1c0.4-0.5,0.7-0.9,1-1.3c0.6-0.8,1.3-1.6,1.8-2.3l0.8-1.1c0.3-0.4,0.5-0.7,0.8-1.4l1.1-2.4c0,0,0-0.1,0-0.1
		c0.1-0.1,0.2-0.3,0.2-0.4c0.1-0.2,0.2-0.4,0.3-0.6c-0.1,0.7-0.2,1.3-0.3,2c-0.3,2.5-0.5,5.5-0.5,8.9c0.3,0,0.4-0.1,0.3-0.2
		c-0.1-0.2,0-0.1,0.4,0.2c0-0.6,0-1.1-0.1-1.5c-0.1-0.4,0-0.8,0.3-1.3c-0.6-0.6-0.7-1.3-0.2-2.1c0.3,0.2,0.4,0.5,0.2,0.9
		c-0.2,0.5-0.2,0.9,0,1.2c0.2,0.6,0.3,1.6,0.4,2.9c0.1,1.3-0.3,1.8-1.1,1.5c-0.3,0.3-0.4,0.6-0.2,0.9c0.2,0.3,0.2,0.6,0.2,0.9
		c0.3,0.2,0.4,0.1,0.4-0.1c-0.1-0.2,0-0.3,0.3-0.1c-0.2,2.2,0.2,4.2,0.9,6c0.8,1.8,0.3,0.6,0.3,2.2c-0.9-1.2-0.6,0.3-0.7-1.1
		c-0.2-1.4-0.5-2.8-0.9-4.2c0.2,2.2,0.6,4.6,1.3,7.1c0.7,2.6,1.8,4.1,3.6,5.5c0.6,0.6,1.4,1.3,2.3,1.2c1.7,0.9,2.9,0.2,4.5,0.3
		c1.6,0.1,2.9,0.3,3.7-0.7c0.1-0.2,5.2-3.1,5.3-3.3c-0.3,0-0.4-0.1-0.4-0.4c0.3,0,0.4,0,0.3,0.1c-0.1,0.1,0,0.1,0.3,0.1
		c0-0.7,0.2-1.3,0.8-1.9c0.5-0.6,0.9-1.2,1.2-1.9c0-0.1-0.1-0.2-0.3-0.2c-0.2,0-0.3-0.1-0.1-0.4c0.3,0,0.4,0.1,0.4,0.4
		c0,0.3,0.2,0.5,0.4,0.6c-0.2-0.3-0.1-0.4,0.2-0.4c0.3,0,0.3-0.1,0-0.2c-0.3-0.4-0.2-0.9,0.4-1.6c0.5-0.7,1.2-0.7,1.2-1
		c0.3,0,0.4,0.1,0.4,0.2c0,0.1,0.1,0.2,0.2,0.2c0.3-0.3,0.3-0.4,0-0.4c-0.3,0-0.4-0.1-0.4-0.4c0.1-0.3,0.3-0.6,0.5-0.9
		c0.2-0.3,0.2-0.4,0.1-0.4c0,0.1-0.1,0.2-0.2,0.2c-0.1,0-0.2-0.1-0.2-0.2c0.1-0.3,0.2-0.4,0.3-0.3c0.1,0.1,0.2,0,0.5-0.1
		c0-0.7,0.2-1.3,0.8-1.9c0.1,0.1,0.1,0.2-0.1,0.3c-0.2,0.1-0.2,0.2,0.1,0.3c0.1-0.4,0.3-0.9,0.5-1.5c0.1-0.2,0.1-0.3,0.1-0.5
		c0.3-0.4,0.5-0.8,0.7-1.2c0,0,0,0,0,0c0,0,0,0,0,0c0,0,0.1-0.1,0.1-0.1c0-0.1,0.1-0.2,0.1-0.3c0.1,0,0.1,0,0.2,0c0-0.1,0-0.2,0-0.4
		c0.5-1,1.1-2.1,1.6-3.4c0.1-0.1,0.2-0.2,0.3-0.3c0-0.1,0-0.3,0-0.4c0.2-0.6,0.5-1.1,0.7-1.7c0.1-0.2,0.2-0.4,0.3-0.7
		c0.1-0.3,0.3-0.7,0.4-1.1c-0.1,1.5-0.2,3.1-0.2,4.6c-0.1,3.5-0.2,7.4-0.2,11.7c0,4.3,0.4,8.4,1,12.3c0.7,3.9,1.9,7.4,3.6,10.4
		c1.7,3,4.1,4.9,7.3,5.8c1.5,0.6,3.5,0.6,5.9,0c2.4-0.6,4.1-1.5,5.2-2.7c1-0.6,1.9-1.5,2.7-2.8c0.8-1.3,1.6-2.3,2.3-3
		c0-0.1-0.1-0.3-0.2-0.5c-0.1-0.2-0.1-0.4,0.2-0.5c0.3,0.4,0.5,0.7,0.6,0.8c0-0.3,0.1-0.7,0.2-1.1c0.1-0.5,0.3-0.5,0.6-0.1
		c0.1-0.3,0.1-0.5-0.1-0.6c-0.2-0.1-0.2-0.3,0.1-0.4c0,0.6,0.2,0.7,0.5,0.5c0.3-0.2,0.4-0.5,0.1-0.7c0,0.4-0.1,0.6-0.2,0.4
		c-0.1-0.1-0.2-0.3-0.2-0.4c0.1-0.3,0.2-0.3,0.3-0.2c0.1,0.1,0.2,0.2,0.5,0.2c-0.3-0.6-0.3-1,0-1.3c-0.1-0.1-0.2-0.3-0.2-0.4
		c0-0.1-0.1-0.2-0.4-0.2c0.4,0,0.6-0.4,0.4-1.3c0.3,0.1,0.5,0.4,0.5,0.8c0.1,0.4,0,0.8-0.3,1c0,0.6,0.2,0.7,0.6,0.4
		c0.1-0.7,0.2-1.6,0.1-2.7c-0.1-1.1,0.2-2,0.7-2.7c0,0.4,0.2,0.6,0.6,0.6c-0.3-0.1-0.4-0.4-0.4-0.8s0.1-0.7,0.4-0.8
		c-0.3-0.8-0.4-1.6-0.4-2.3c0-0.5,0-1.1,0-1.6c0,0.1,0.1,0.1,0.2,0.2c0.3,0.1,0.3,0.3,0,0.6c0.3,0,0.4-0.1,0.4-0.4
		c0-0.3,0.1-0.5,0.2-0.6c0.1,0,0.2,0,0.3,0.1c0.1,0.1,0.2,0.1,0.3,0.1c-0.1-0.3-0.1-0.5,0-0.5c0.1-0.1,0.2-0.2,0.2-0.5
		c-0.3-0.3-0.4-0.5-0.4-0.6c0.3,0.3,0.5,0.3,0.5,0c0.1-0.3,0.2-0.6,0.3-0.8c0.3,0.3,0.3,0.6,0.2,0.8c-0.1,0.3-0.1,0.3,0.2,0
		c0,0.7-0.1,1-0.2,0.9c-0.1-0.1-0.2-0.2-0.2-0.3c-0.1,0.3-0.1,0.4,0,0.4c0.1,0,0.3,0.1,0.4,0.2c-0.4,0.4-0.5,0.8-0.2,1.3
		c0.3,0.4,0.4,1,0.4,1.7c-0.6,0.1-0.8,0.6-0.8,1.3c0.3,0.1,0.5,0.3,0.6,0.6c-0.1-0.6,0-0.9,0.4-1.2c0.4-0.2,0.5-0.7,0.2-1.4h0.4
		c0.1-0.7,0.3-1.3,0.4-1.7c0.1-0.4,0.1-0.8,0-1.3c0.1,0,0.3,0.1,0.6,0.4c0-0.6-0.1-0.9-0.2-1.1c-0.1-0.2-0.2-0.5-0.2-0.7
		c0.1,0,0.2,0.1,0.2,0.2c0,0.1,0.1,0.2,0.2,0.2c0.1-0.3,0.1-0.5,0-0.7c-0.1-0.2-0.3-0.5-0.4-0.7c-0.1,0.3-0.1,0.5,0.1,0.5
		c0.2,0.1,0.2,0.2-0.1,0.3c-0.1,0-0.2,0-0.2,0.1c0,0,0,0.1-0.1,0.1c0,0,0.1,0,0.1,0c-0.4,0.4-0.6,0.8-0.5,1.2c-0.1-0.1-0.1,0-0.3,0
		c-0.1-0.3-0.1-0.6,0.1-0.8c0.2-0.3,0.1-0.4-0.3-0.4c0.3-0.3,0.5-0.3,0.5-0.2c0,0.1,0.2,0.1,0.3,0.2c0-0.3,0-0.4-0.1-0.5
		c-0.1-0.1-0.1-0.2-0.1-0.5c0.1,0,0.2,0,0.2,0.1c0,0.1,0.1,0.1,0.2,0.1c0.1-0.6,0.1-0.9-0.2-1c-0.1,0.1-0.1,0.3,0,0.5
		c0.1,0.2,0.1,0.2-0.2,0.1c0-0.1-0.1-0.2-0.2-0.1c-0.1,0.1-0.2,0-0.2-0.3c0.3-0.3,0.4-0.5,0.4-0.6c-0.3-0.1-0.4-0.3-0.4-0.6
		c0-0.3,0.1-0.5,0.4-0.6c-0.1,0.3-0.2,0.4-0.1,0.4c0.1,0,0,0.1-0.1,0.4c0.6,0,1-0.1,1.3-0.2c-0.3,0.1-0.5,0.1-0.6-0.2
		c-0.1-0.3-0.1-0.5,0.2-0.6v0.6c0.4-0.3,0.7-0.3,0.8-0.1c0.1,0.2,0.4,0.3,0.8,0.3c-0.4,0.1-0.6,0.3-0.5,0.6c0.1,0.3-0.1,0.4-0.5,0.4
		c0-0.1,0-0.3,0.1-0.4c0.1-0.1,0-0.2-0.3-0.2c-0.1,0.3-0.1,0.5,0.1,0.6c0.2,0.1,0.4,0.3,0.5,0.6c-0.3,0.1-0.4,0.4-0.4,0.8
		c0,0.4,0.2,0.6,0.6,0.6c-0.3-0.6-0.1-0.8,0.4-0.8c0-0.3-0.1-0.5-0.3-0.6c-0.2-0.1-0.3-0.3-0.3-0.6c0.7,0.1,1,0.1,0.8-0.2
		c-0.1-0.3,0-0.2,0.4,0.2c-0.3-0.3-0.4-0.6-0.3-0.9c0.1-0.3,0.3-0.4,0.7-0.1c-0.4-0.3-0.5-0.6-0.2-0.8c0.3-0.3,0.3-0.5,0-0.6
		c0.3,0,0.4-0.1,0.4-0.3c0-0.2,0.1-0.2,0.4,0.1c-0.3-0.3-0.3-0.6,0-0.8c0.3-0.3,0.2-0.6-0.2-0.8c-0.3,0-0.4,0.1-0.4,0.2
		c0,0.1-0.1,0.1-0.4-0.2c0.3,0.4,0.3,0.7,0.1,0.8c-0.2,0.1-0.1,0.2,0.3,0.2c-0.1,0.3-0.2,0.3-0.3,0.2c-0.1-0.1-0.2-0.1-0.5,0
		c0,0.4,0.1,0.8,0.2,1.2c0.1,0.3,0.1,0.6-0.2,0.7c0-0.1-0.1-0.2-0.2-0.2c0.1-0.3,0.2-0.6,0.2-0.9c0-0.3-0.1-0.5-0.4-0.5
		c0-0.1,0.1-0.2,0.2-0.1c0.1,0.1,0.2,0,0.2-0.3c-0.6,0-0.7-0.2-0.4-0.6c0.3-0.4,0.3-0.8,0-1c0.3,0,0.4,0.1,0.3,0.3
		c-0.1,0.2,0,0.3,0.3,0.3c0.1-0.3,0.2-0.6,0.1-0.8c-0.1-0.3,0.1-0.4,0.5-0.4c-0.3-0.6-0.4-1.1-0.4-1.7c0.1,0,0.3,0.1,0.4,0.3
		c0.1,0.2,0.2,0.2,0.2-0.1c-0.1,0-0.2-0.1-0.2-0.4c0.1,0,0.5,0.1,1,0.4c-0.1,0.6-0.3,1-0.6,1.3c-0.3,0.3-0.6,0.6-0.8,0.8
		c0.3-0.3,0.5-0.3,0.6-0.1c0.1,0.2,0.2,0.4,0.2,0.5c0.3-0.6,0.5-0.7,0.6-0.4c0-0.3-0.1-0.4-0.3-0.4c-0.2,0-0.2-0.1-0.1-0.4
		c0.1,0,0.2,0.1,0.2,0.2c0,0.1,0.1,0.1,0.4,0c-0.1-0.7,0-1.2,0.3-1.4c0.3-0.2,0.4-0.6,0.1-1.1c-0.3-0.1-0.3-0.1-0.2,0.2
		c0.1,0.3,0.1,0.4-0.2,0.4c0-0.4-0.1-0.6-0.2-0.4c-0.1,0.1-0.2,0.1-0.2-0.2c0.1,0,0.2-0.1,0.2-0.2c0-0.1,0.1-0.3,0.4-0.4
		c-0.3-0.3-0.3-0.6,0-1c0.3-0.4,0.3-0.8,0-1.3h0.6c-0.3-0.8-0.2-1.5,0.2-2.1c0.3,0.1,0.3,0.3,0.1,0.5c-0.2,0.2-0.2,0.4,0.1,0.5
		c0.3,0,0.5-0.1,0.6-0.4c0.1-0.3,0.2-0.3,0.2,0c0,0.4-0.2,0.8-0.5,1.1c-0.3,0.4-0.5,0.9-0.3,1.8c0.3,0,0.3-0.1,0.2-0.4
		c-0.1-0.3-0.1-0.5,0.2-0.6c0.1,0.1,0.3,0,0.6-0.3c0.3-0.3,0.5-0.8,0.7-1.3c0.2-0.5,0.4-0.9,0.6-1.4c0.2-0.4,0.3-0.7,0.3-0.8
		c-0.3-0.3-0.4-0.5-0.4-0.6c-0.3,0.3-0.6,0.5-0.8,0.5c-0.3,0.1-0.6,0.2-0.8,0.5c-0.3,0.3-0.3,0.5,0,0.6c0.3,0.1,0.3,0.3,0,0.6
		c-0.3-0.6-0.3-1.2-0.2-1.9c0.1-0.7,0.3-1.2,0.6-1.5c0.1,0.1,0.2,0.3,0.1,0.4c-0.1,0.1,0,0.1,0.3,0c0.4,0,0.6-0.3,0.6-1
		c-0.6,0-0.7,0.1-0.5,0.3c0.2,0.2,0.2,0.4-0.1,0.5c0-0.3-0.1-0.5-0.2-0.5c-0.1-0.1-0.1-0.2,0-0.5c0.1,0.1,0.4,0,0.8-0.4
		c0.3,0.3,0.6,0.5,0.8,0.6c0.3,0.1,0.4,0.4,0.4,0.8c0-0.7,0.2-1.3,0.6-1.8c0.4-0.5,0.8-1,1-1.6c-0.3-0.1-0.4-0.1-0.3,0.2
		c0.1,0.3,0,0.4-0.3,0.2c0.1-0.3,0.3-0.6,0.5-0.8c0.2-0.3,0.2-0.6,0.1-0.8c0.1,0.3,0.2,0.4,0.2,0.2c0-0.1,0.1-0.3,0.4-0.4
		c0-0.6-0.1-0.9-0.2-1c1.1-1.5,2.2-3.3,3.1-5.4c1-2.1,2-4.2,3.1-6.3c0,0.3,0.1,0.4,0.4,0.4c0.9-1.4,1.7-3,2.5-4.5
		c0.2-0.4,0.5-0.8,0.4-0.8c0.6-1.2,1.7-3.4,2.9-5.5c-0.5,1.8-1,3.6-1.4,5.5c-0.8,3.4-1.3,6.9-1.7,10.5c-0.3,3.6-0.3,7,0.1,10.4
		c0.1,0,0.2-0.1,0.3-0.2c0.1-0.1,0.1-0.1,0.1,0.2c0,1.5,0.1,3,0.3,4.5c0.2,1.5,0.9,2.8,2,3.9c-0.2,0-0.3,0-0.4-0.1
		c0.3,0.5,0.7,1.2,1.2,2.1c0.6,0.9,1.2,1.2,1.9,0.9c0.4,0.7,1,1,1.8,0.9c0.8-0.1,1.5,0,2.2,0.3c0.2,0.1,0.4-0.1,0.6-0.3
		c0.7-0.6,1.3-1,2.1-1.1c0,0,0,0,0,0c0.5-0.1,0.8-0.4,1.1-0.8c1.6-1.2,3.2-2.7,4.8-4.2c0.4-0.2,0.7-0.4,0.9-0.6
		c0.4-0.4,1.9-1.1,1.7-1.5c0.2,0.2,0.4,0.2,0.4,0s0.1-0.4,0.3-0.5c0.1-0.3,0.1-0.6,0.1-0.9c0-0.4,0.1-0.4,0.3,0c0-0.1,0-0.3-0.1-0.5
		c0.1-0.2,0.3-0.3,0.4-0.5c0.2,0.1,0.2,0.2,0,0.3c-0.2,0.2-0.2,0.3,0.2,0.4c0.2-0.2,0.3-0.6,0.2-0.9c0-0.1,0-0.2,0-0.2
		c0.2-0.2,0.3-0.4,0.5-0.6c0.2,0.1,0.2,0.2,0,0.4c-0.2,0.2-0.2,0.4,0.1,0.5l0.3-1.5c0.1-0.1,0.2-0.2,0.3-0.4c0,0,0,0,0,0
		c0,0.1,0.1,0.2,0.4,0.1c-0.2-0.5-0.1-0.8,0.3-0.9c0.3-0.1,0.4-0.4,0.4-0.7c0.1-0.2,0.2-0.3,0.3-0.5c0,0,0,0,0,0
		c0.1,0,0.3-0.1,0.5-0.3c-0.1,0-0.2-0.1-0.3-0.1c0-0.1,0.1-0.1,0.1-0.2c0.1,0,0.1,0,0.2-0.2c0,0-0.1,0-0.1,0c0.7-1,1.3-1.9,1.9-2.8
		c0,0,0.1,0,0.1,0c0-0.1,0-0.1,0-0.2c1.8-2.8,2.9-4.9,3.1-5.4c0.2-0.8,2.1-4.6,4-8.4c-0.4,2.4-0.6,4.9-0.6,7.5
		c0.4,2.6,1.4,4.9,2.8,6.7c1.5,1.8,3.8,2.5,7,2.1c3.1-3.9,2.2-2.7,4.8-7.1c2.6-4.4,1,2.2,3.3-2.3c0.1-0.3,0.1-0.4-0.1-0.4
		c-0.2,0-0.2-0.1-0.1-0.4c0.6-0.1,1-0.5,1.4-1.2c0.3-0.6,4.3-6.7,4.6-7.5c0.3-0.8,0.5-1.7,0.7-2.6c0.2-0.9,0.5-1.7,0.9-2.4
		c0,0.4,0.1,0.6,0.2,0.6c0.4-1,1-2,1.9-2.9c0.8-1,1.2-2,1-3.1c1.4-2.2,6.6-10.7,8.5-12.3c-0.7,4-1.2,8.3-2.4,12.9
		c-1.2,4.5-1.2,12.7-2,17.7c-0.8,4.9-1,9.9-0.7,14.7c0.1,2.2,0.3,4.6,0.6,7.1c0.3,2.5,0.8,4.8,1.5,6.8c0.7,2,1.7,3.7,3.1,4.9
		c1.4,1.3,3.2,1.7,5.4,1.5c1.3,0,2.2,0.1,3.6-1.1c0.3,0,0.4,0.1,0.3,0.3c-0.1,0.2,0.2-0.3,0.5-0.3c0,0.4,0.1,0.5,0.4,0.2
		c0.3-0.3,0.3-0.1,0,0.4c0.8-0.6,2-1.3,2.7-1c0.4-0.3,2.2-2.8,2.8-3.1c0.6-0.3,1-0.5,1.5-0.8c2.4-3.1,3.8-3.6,5.8-7.2
		c2-3.6,3.8-7.2,5.6-10.9c1.8-3.7,2.1-5.4,3.9-9.1c0.8-1.6,1.9-4.6,3.1-7.8c-0.2,1.6-0.4,3.1-0.6,4.7c-0.3,3.6-0.3,7,0.1,10.4
		c0.1,0,0,0.4-0.1,0.6c0-0.1,0-0.1,0,0.1c0,0,0,0,0,0c0,1.5,0.7,2.3,0.9,3.8c0.2,1.5,0.9,2.8,2,3.9c-0.2,0-0.3,0.1-0.3,0.2
		c0.3,0.5,0.6,0.9,1.1,1.8c0.6,0.9,2.2,1.8,2.9,1.6c0.4,0.7,0,0.4,0.7,0.3c0.8-0.1,1.5,0,2.2,0.3c0.1-0.1,0.3-0.4,0.4-0.7
		c0.1-0.3,0.3-0.4,0.4-0.1c0,0.3-0.1,0.4-0.2,0.3c-0.1-0.1-0.2,0-0.2,0.3c0.7-0.7,1.4-1.1,2.2-1.3c0.8-0.1,4.2-2.6,4.4-3.8
		c2.4-2,2.7-2.9,4.3-5.3C609.4,147.4,610.1,143.9,609.9,141z M402.6,165.6c-0.3,0-0.4-0.1-0.4-0.4c0.1-0.2,0-0.5-0.1-0.8
		C402.5,164.6,402.6,165,402.6,165.6z M260.7,112.5c0.1-0.1,0.1-0.2,0.1-0.3c0.1-0.3,0.2-0.2,0.2,0.2c0,0.4-0.1,0.6-0.4,0.4
		C260.6,112.7,260.6,112.6,260.7,112.5z M260.8,116c0,0.3-0.1,0.3-0.2,0.1c0,0-0.1-0.1-0.1-0.1C260.6,116.1,260.6,116.1,260.8,116z
		 M260.1,115.6c0.1,0,0.1-0.1,0-0.2c0.1-0.3,0.2-0.2,0.2,0.2c0,0.2,0,0.3,0.1,0.4c-0.1-0.1-0.2-0.1-0.3,0V115.6z M259.5,110.3
		c-0.1,0.1-0.3,0.2-0.5,0.2c0-0.2,0-0.4-0.1-0.6C259,109.9,259.2,110.1,259.5,110.3z M258.9,110.8
		C258.9,110.7,258.9,110.7,258.9,110.8c0.2,0.2,0.3,0.4,0.3,0.6c0.1,0.3,0.2,0.6,0.3,0.8c-0.3-0.1-0.5-0.4-0.5-0.7
		c-0.1-0.3-0.2-0.4-0.3-0.1C258.7,111.1,258.7,110.9,258.9,110.8z M258.5,112c0-0.3,0.1-0.3,0.3-0.1c0.2,0.2,0.2,0.4,0.1,0.5
		l-0.2,0.4c-0.3-0.1-0.3-0.3-0.1-0.5C258.8,112.1,258.7,112,258.5,112z M258.3,131c0-0.3,0.1-0.5,0.4-0.6c0,0.8-0.1,1.3-0.4,1.3
		c0.1-0.1,0.1-0.3,0-0.4c0,0,0,0-0.1,0C258.2,131.2,258.3,131.1,258.3,131z M225.4,141.3c-0.3,0-0.4-0.1-0.3-0.3
		c0.1-0.2,0-0.5-0.1-0.8C225.3,140.3,225.4,140.7,225.4,141.3z M216,135.9c-0.3,0-0.4-0.1-0.3-0.3c0.1-0.2,0.1-0.5,0.1-0.8
		C215.9,135,216,135.3,216,135.9z M213.4,115.8C213.3,115.9,213.4,115.7,213.4,115.8c-0.6,1.6-0.7,1.8-1.5,3.1
		c-0.4,0.7-0.7,1.8-1,2.6c-0.3,0.8-0.5,1.6-0.8,2.4c-0.3,0.8-0.2,1.5-0.6,2.1c-0.4,0.6-1.1,1.3-1.5,2.1c-1,1.6-1.2,3.1-2.1,4.3
		c-1,1.3-2.6,4.6-3.7,5.9l-1.7,1.9c-0.5,0.6-1.2,1.3-1.6,1.6c-0.1,0.1-0.2,0.1-0.3,0.1c-0.1,0-0.2,0-0.3,0c-0.2,0-0.3-0.1-0.4-0.4
		c-0.3-0.5-0.9-2.5-1.1-3.3l-0.3-1.4c-0.1-0.3-0.1-0.7-0.1-1.1c0-0.8,0.2-1.6,0.4-2.5c0.2-0.9,0.5-1.7,0.7-2.7
		c0.1-0.5,0.2-1,0.2-1.5c0-0.6,0-1.8,0-2.2c-0.2-1.1,0.2-2.6,0.3-3.9l0,0.1c0.2-1.1,0.4-1.2,1.1-2.5c-0.1-0.1,0.2-0.5,0-0.4
		c0.1-0.5,0.5-0.8,0.7-1.5c0,0-0.1,0,0-0.1c0.5-1.8-0.1,0.3,0.9-1.7c0.3-0.7,0.6-1.5,0.9-2.1c0.1-0.2,0.2-0.3,0.3-0.4
		c0-0.1,0.1-0.1,0.2-0.2c0.1-0.2,0.2-0.3,0.2-0.4c0.2-0.4,0.4-0.8,0.5-1.2c0.7-1.5,1.2-3,2-4.3c-0.1,0.2-0.2,0.2-0.1-0.1
		c0.3-0.1,0.3-0.5,0.6-0.9c0,0,0,0,0,0c0.2-0.3,0.4-0.5,0.5-0.7c0.2-0.2,0.3-0.3,0.6-0.6c0.5-0.5,0.9-1.1,1.3-1.6c0,0,0,0,0,0.1
		c0.6-1.1,1.6-2.2,2-2.5c-0.1,0.1,0.4-0.1,0.5,0c1-0.3,2.3-0.3,3.2-0.2l0,0c1.3,0.4,0.4,0.6,1.3,1.9c0,0,0.1,0.8,0,0.8
		c-0.2,0.1-0.3,1.5-0.4,1.7c0,0.3,0.3,0.9,0.3,1.1c0.1,0.3,0.6,1,0.8,1.3c0.1,0.2,0.5,0.4,0.9,0.7c-0.1,0.1-0.2,0.2-0.3,0.5
		c-0.2,0.6-1.9,2.9-2.1,3.5c-0.1,0.3-0.2,0.6-0.4,1C213.9,114.6,213.3,115.6,213.4,115.8z M214.5,138.5c0.1-0.5,0-0.8-0.1-0.8
		c0.3-0.3,0.4-0.2,0.3,0.2c-0.1,0.4,0,0.7,0.1,0.9C214.5,139.1,214.4,139,214.5,138.5z M214.9,141.7c-0.1-0.3-0.1-0.7-0.1-1.1
		c0.3,0.6,0.4,1.3,0.4,2C215.1,142.3,215,142,214.9,141.7z M215.4,139.2c0-0.3,0-0.4,0.1-0.4c0.1,0,0.1-0.1,0.1-0.2h0.4
		C216.1,139,215.9,139.2,215.4,139.2z M225.4,133.1c-0.3,0.1-0.4-0.3-0.4-1c0.3,0,0.5,0.3,0.7,0.8c0.2,0.5-0.7,1.5-1.1,1.7
		C224.9,133.9,225.7,133,225.4,133.1z M240.8,138.1C240.8,138.1,240.8,138.1,240.8,138.1C240.7,138.2,240.7,138.2,240.8,138.1z
		 M244.6,129.1C244.6,129,244.6,129,244.6,129.1c0.1-0.1,0.1-0.1,0.2-0.3l0,0.4C244.6,129.2,244.6,129.1,244.6,129.1z M257.3,137.5
		c-0.1,0.3-0.1,0.6-0.1,0.8c-0.1-0.1-0.2-0.3-0.1-0.6c0.1-0.3,0-0.6-0.1-0.8c-0.1,0-0.2-0.1-0.2-0.4c0-0.1,0.1-0.3,0.2-0.4
		c0.3,0.1,0.3,0.3,0.2,0.4c-0.1,0.1-0.2,0.3-0.2,0.4C257.3,137,257.4,137.3,257.3,137.5z M256.9,141.4c-0.2-0.1-0.4-0.2-0.5-0.3
		c0.1-0.3,0.3-0.7,0.5-1.4c0.2-0.6,0-1-0.5-1.2c0-0.3,0-0.5,0.1-0.5c0.1-0.1,0.1-0.2,0.1-0.3c0.6,0.3,0.7,0.8,0.4,1.7
		c-0.3,0.8-0.2,1.4,0.2,1.7C257.2,141.4,257.1,141.5,256.9,141.4z M257,140.7c0.3-0.3,0.4-0.6,0.3-0.8c-0.1-0.3,0-0.6,0.1-0.8
		c0.1,0.3,0.2,0.6,0.3,1C257.8,140.5,257.6,140.7,257,140.7z M290.7,175.4c0.3,0,0.4,0.1,0.4,0.3c0,0.2-0.1,0.3-0.4,0.3V175.4z
		 M291.2,171.7c-0.1,0.3,0,0.7,0.3,0.9c-0.6-0.1-0.7,0-0.5,0.4c0.2,0.4,0.2,0.7-0.1,0.8c-0.3-0.4-0.3-0.9-0.2-1.6
		c0.1-0.6,0.2-1.2,0.2-1.6C291.2,171.1,291.3,171.4,291.2,171.7z M290.9,163.9v0.4c-0.3-0.3-0.4-0.6-0.4-0.8
		C290.7,163.5,290.9,163.6,290.9,163.9z M290.5,167.2c0.3-0.1,0.4-0.3,0.4-0.6c0.3,0.1,0.3,0.4,0.2,0.6c-0.1,0.3-0.3,0.5-0.4,0.6
		C290.3,167.6,290.2,167.4,290.5,167.2z M290.4,168.6c0.2-0.1,0.2-0.2,0.1-0.5c0.3-0.1,0.3-0.1,0.2,0.2c-0.1,0.3-0.2,0.5-0.2,0.6
		C290.2,168.8,290.2,168.7,290.4,168.6z M290.7,177v-0.4c0-0.1,0-0.2-0.1-0.2c0,0-0.1,0-0.1,0.1c0-0.1-0.1-0.2-0.2-0.3
		c0.1,0.1,0.2,0.1,0.2,0c0.1,0,0.2,0,0.2,0.1c0,0.1,0.1,0.1,0.2,0.1c0,0.1,0,0.2-0.1,0.3C290.7,176.8,290.7,176.9,290.7,177z
		 M301.2,181.9c-0.1,0-0.1-0.1-0.1-0.4c0.3,0,0.4,0.2,0.4,0.6C301.4,181.9,301.3,181.9,301.2,181.9z M301.5,180.6h-0.4v-0.4
		c0.3,0,0.4-0.1,0.4-0.2c0.1,0.1,0.2,0.3,0.2,0.4C301.8,180.5,301.7,180.6,301.5,180.6z M304.1,180.2c-0.1-0.1-0.3-0.1-0.4,0.2
		l-0.2-0.2V180c0.3,0,0.4,0,0.4-0.1c0-0.1,0.1-0.1,0.2-0.1V180.2z M306.4,176.8c-0.3-0.1-0.2-0.4,0.1-0.7c0.3-0.3,0.4-0.5,0.1-0.3
		c-0.3,0-0.3-0.1-0.2-0.3c0.1-0.2,0.3-0.3,0.4-0.3C307.1,175.7,306.9,176.3,306.4,176.8z M314,153.6c-0.2,0-0.2,0.1-0.1,0.4
		c-0.3-0.1-0.3-0.3-0.1-0.4c0.2-0.1,0.2-0.3,0.1-0.6c0.1,0,0.2,0,0.1,0.1c-0.1,0.1,0,0.1,0.1,0.1C314.2,153.5,314.2,153.6,314,153.6
		z M315.3,149.7c0.1,0,0.1-0.1,0-0.4c0.3-0.1,0.4,0,0.4,0.4c0,0.4-0.1,0.6-0.4,0.4C315.2,149.8,315.2,149.7,315.3,149.7z
		 M315.6,152.4c-0.1,0-0.2-0.1-0.2-0.2c-0.1,0-0.2-0.2-0.2-0.6c0.3,0,0.5,0.1,0.6,0.2c-0.1,0.1-0.1,0.2,0,0.2
		C315.9,152,315.8,152.1,315.6,152.4z M316.8,149.2c-0.1,0-0.2,0.1-0.2,0.4c-0.1,0.3-0.2,0.2-0.1-0.2c0.1-0.4,0-0.6-0.3-0.4
		c0.1-0.3,0.2-0.3,0.3-0.2c0.1,0.1,0.2,0.1,0.5,0C317,149.1,316.9,149.2,316.8,149.2z M319.1,143.4c-0.6-0.4-0.7-0.2-0.4,0.6
		c-0.3,0-0.4-0.1-0.4-0.3c0-0.2-0.1-0.3-0.4-0.3c0.4-0.4,0.6-0.6,0.6-0.4c-0.1-0.1-0.2-0.4-0.2-0.7c0-0.3,0.1-0.5,0.4-0.5
		c-0.3,0.4-0.3,0.7-0.1,0.9C318.8,142.9,319,143.1,319.1,143.4z M321.6,136.1c0,0.3,0,0.5,0.1,0.6c0.1,0.1,0.1,0.3,0.1,0.6
		c-0.3,0-0.4-0.1-0.4-0.4C321.5,136.6,321.6,136.3,321.6,136.1z M323.7,163.4c0.1,0,0.2,0,0.2,0.1c0,0.1,0.1,0.1,0.4,0.1
		c0,0.3-0.2,0.4-0.6,0.4V163.4z M323.3,162.2c0-0.3,0-0.4,0.1-0.3c0.1,0.1,0.1,0,0.1-0.3c0.3,0,0.4,0.1,0.3,0.4
		C323.7,162.3,323.5,162.3,323.3,162.2z M324.1,160.9c-0.3,0.1-0.4,0.1-0.4-0.2c0-0.3-0.1-0.2-0.2,0.2c-0.3-0.1-0.3-0.3-0.1-0.5
		c0.2-0.2,0.4-0.2,0.5-0.1v0.6c0.3-0.3,0.5-0.4,0.6-0.4c0,0.3-0.1,0.4-0.2,0.3C324.2,160.8,324.1,160.8,324.1,160.9z M324.9,165.7
		c0.1,0,0.2,0.1,0.2,0.4c-0.4,0-0.6-0.2-0.6-0.6C324.6,165.7,324.8,165.7,324.9,165.7z M323.2,132.2c0,0.2,0,0.4-0.1,0.5
		C323,132.6,323.1,132.4,323.2,132.2z M323.5,166.3c-0.1,0.2-0.1,0.5,0,0.7c-0.3-0.1-0.3-0.3-0.2-0.4c0.1-0.1,0.1-0.3,0-0.6
		C323.5,166,323.6,166.1,323.5,166.3z M323.5,165.3c0.6,0,0.8,0.2,0.8,0.6c-0.1-0.3-0.3-0.4-0.5-0.3
		C323.6,165.7,323.5,165.6,323.5,165.3z M323.9,166c0.3,0.3,0.3,0.5,0.2,0.6c-0.1,0.1-0.1,0.3,0,0.6c0.1-0.1,0.2-0.3,0.1-0.5
		c-0.1-0.2,0-0.2,0.3,0.1c0-0.1,0-0.2-0.1-0.2c-0.1,0,0-0.1,0.1-0.4c0.3,0,0.4,0.1,0.3,0.3c-0.1,0.2,0,0.5,0.1,0.7
		c-0.3-0.3-0.5-0.3-0.5-0.1c-0.1,0.2-0.2,0.2-0.5,0.1v0.6c0.3,0,0.5-0.1,0.5-0.3c0.1-0.2,0.2-0.2,0.5-0.1c0,0.4-0.3,0.6-1,0.6
		C323.6,167.6,323.6,166.9,323.9,166z M324.1,169.1c0.1-0.1,0.3-0.2,0.5-0.2s0.2-0.3-0.1-0.8c0.3,0,0.4,0.3,0.4,1
		c-0.1,0-0.2,0-0.3,0.1C324.5,169.3,324.4,169.2,324.1,169.1z M325,171.9c0.2-0.1,0.2-0.4,0.1-0.9c0.3,0.3,0.3,0.6,0.1,0.9
		c-0.2,0.4-0.5,0.5-0.7,0.5C324.6,172.2,324.8,172,325,171.9z M324.7,173.1c0.1-0.3,0.3-0.6,0.4-0.8c0.3,0.3,0.3,0.6,0,0.8
		c-0.3,0.3-0.4,0.6-0.4,0.8C324.6,173.6,324.6,173.3,324.7,173.1z M325.8,174.7l-0.6-1.3C325.8,173.8,326,174.2,325.8,174.7z
		 M325.9,176.5c-0.1,0.2-0.2,0.4-0.3,0.5c-0.3-0.1-0.3-0.3-0.1-0.4c0.2-0.1,0.2-0.3,0.1-0.6C325.8,176.1,325.9,176.3,325.9,176.5z
		 M326.1,173.5c0.1,0.1,0,0.2-0.3,0.2v-0.4c0.1,0,0.2,0,0.2-0.1c0-0.1,0.1-0.1,0.4-0.1C326.1,173.2,326,173.3,326.1,173.5z
		 M346.1,188c-0.1,0.2-0.2,0.2-0.5,0.1c-0.1-0.3-0.1-0.4,0-0.3c0.1,0.1,0.2,0,0.2-0.3C346.1,187.6,346.2,187.8,346.1,188z
		 M347.3,186.4c-0.3,0.1-0.4,0.1-0.4,0c0-0.1-0.1-0.3-0.4-0.4c0-0.1,0-0.2,0.1-0.2c0.1,0,0.1-0.1,0.1-0.4c0.1,0.1,0.2,0.3,0.2,0.6
		c0,0.1,0,0.1,0.1,0c0.1-0.1,0.2-0.1,0.3,0V186.4z M347.9,184.4c-0.1,0-0.2,0.1-0.2,0.2c0,0.1,0.1,0.2,0.2,0.2
		c-0.1,0.3-0.2,0.3-0.2,0c0-0.3-0.1-0.4-0.2-0.4c0-0.1,0.2-0.2,0.6-0.2C348.1,184.3,348.1,184.4,347.9,184.4z M349.1,181.5
		c0.1-0.2,0-0.4-0.1-0.5c0.3,0,0.4,0.2,0.4,0.6C349.1,181.8,349,181.7,349.1,181.5z M351.1,177.5c-0.4-0.1-0.5-0.3-0.1-0.6
		C351.3,176.5,351.3,176.8,351.1,177.5z M352.7,173c-0.1,0.3-0.4,0.5-0.6,0.5c0-0.4,0.1-0.7,0.4-0.7c0.3-0.1,0.3-0.2,0-0.5
		C352.8,172.4,352.9,172.6,352.7,173z M354.9,167.1c-0.2,0.2-0.3,0.5-0.3,0.7c-0.3-0.3-0.3-0.5-0.1-0.6c0.2-0.1,0.3-0.3,0.3-0.6
		C355.1,166.7,355.1,166.9,354.9,167.1z M355.7,166c-0.1,0.3-0.3,0.4-0.6,0.4c0.1-0.1,0.2-0.3,0.2-0.5c0-0.2,0.1-0.4,0.2-0.5
		C355.7,165.5,355.8,165.7,355.7,166z M398.7,151.3c0.1-0.2,0.1-0.5,0.1-0.8c0.2,0.2,0.2,0.5,0.2,1.2
		C398.7,151.6,398.6,151.5,398.7,151.3z M376,166.7c-0.4,0.2-0.8,0.2-1.2,0.3c-0.1-0.1-0.3-0.2-0.4-0.2c0,0,0.1,0,0.1,0l0.4,0
		c0.6,0,0.9,0,1.4-0.4c0.1-0.1,0.2-0.1,0.3-0.2C376.5,166.4,376.3,166.6,376,166.7z M390.3,137.5c-0.4,0.7-0.9,1.9-1.3,2.7
		c-0.3,0.9-0.7,1.7-1.1,2.5c-0.4,0.8-0.8,1.5-1.4,2.2c-0.5,0.6-1.3,1.3-1.9,2.1c-1.2,1.6-2,3.2-3.2,4.4c-1.2,1.3-2.2,2.6-3.5,3.9
		l-2,2c-0.7,0.6-1.4,1.3-2,1.6c-0.1,0.1-0.2,0.1-0.3,0.1c-0.1,0-0.3,0-0.3,0c-0.2,0-0.3-0.1-0.5-0.4c-0.3-0.5-0.5-1.5-0.6-2.4
		l-0.3-1.4c-0.1-0.4-0.1-0.7,0-1.1c0.1-0.8,0.3-1.7,0.6-2.6c0.3-0.9,0.7-1.8,1-2.8c0.1-0.5,0.3-1,0.3-1.6c0-0.6,0-0.9,0.1-1.4
		c-0.1-1.2,0.4-2.7,0.6-4l0,0.1c0.3-1.2,0.1-1.3,0.9-2.6c-0.1-0.1,0.3-0.6,0-0.4c0.1-0.5,0.6-0.8,0.9-1.5c0.1,0-0.1,0,0-0.1
		c0.7-1.8-0.1,0.4,1.1-1.8c0.4-0.8,0.8-1.5,1.2-2.2c0.1-0.2,0.2-0.3,0.3-0.4c0.1-0.1,0.1-0.1,0.2-0.2c0.2-0.2,0.2-0.3,0.3-0.4
		c0.3-0.4,0.5-0.8,0.7-1.2c0.8-1.6,1.6-3.1,2.5-4.4c-0.1,0.2-0.3,0.2-0.1-0.1c0.4-0.1,0.3-0.5,0.8-0.9c0,0,0,0,0,0
		c0.2-0.3,0.4-0.5,0.7-0.7c0.2-0.2,0.4-0.3,0.8-0.6c0.6-0.5,1-1.1,1.6-1.6c0,0,0,0,0,0.1c0.8-1.2,1.9-2.2,2.5-2.5
		c-0.1,0.1,0.4-0.1,0.6,0c1.1-0.3,2.7-0.2,3.6-0.1l0,0c1.2,0.4,2.4,1.3,3.3,2.5c-0.1,0.2-0.2,0.4-0.2,0.6l-0.1,0.4
		c-0.1,0.2-0.1,0.4-0.1,0.6c0,0,0,0,0,0l-0.6,3c-0.5,1.1-1,2.2-1.5,3.3c-0.3,0.6-0.5,1.2-0.8,1.8c-0.2,0.3-0.3,0.7-0.5,1
		c0.1,0.2-0.6,1.3-0.5,1.5c-0.1,0.1,0,0,0-0.1C391.4,135.9,391.3,136.1,390.3,137.5z M392.4,162.7c0.1-0.5,0-0.8-0.1-0.8
		c0.3-0.3,0.4-0.2,0.4,0.2c-0.1,0.5,0,0.8,0.1,0.9C392.4,163.3,392.3,163.2,392.4,162.7z M392.8,166.1c-0.1-0.3-0.1-0.7-0.1-1.2
		c0.3,0.6,0.5,1.3,0.5,2.1C393,166.7,392.9,166.4,392.8,166.1z M398.3,155.1c0-0.3,0-0.5,0.1-0.5c0.1,0,0.1-0.1,0.1-0.2h0.5
		C399.2,154.9,398.9,155.1,398.3,155.1z M401.8,157.6c-0.3,0.1-0.5-0.3-0.5-1.1c0.3,0,0.6,0.3,0.8,0.8c0.2,0.5,0.1,1-0.3,1.3
		C402.1,157.8,402.1,157.5,401.8,157.6z M453.5,185.9c0.1,0.3,0.1,0.4-0.1,0.4c-0.2,0-0.2,0.1-0.1,0.4c-0.3,0-0.4-0.3-0.4-1
		c0.3,0.1,0.4,0.2,0.4,0.1C453.3,185.7,453.4,185.8,453.5,185.9z M454.3,183.6c0.1,0.3,0.1,0.5,0,0.6c-0.3-0.3-0.3-0.5-0.2-0.7
		c0.1-0.2,0.1-0.5-0.2-0.7c0.4-0.1,0.5-0.2,0.2-0.3c-0.3-0.1-0.3-0.2,0-0.5c0.3,0.3,0.4,0.8,0.4,1.7
		C454.3,183.3,454.2,183.3,454.3,183.6z M455.1,180.8c-0.1,0.1-0.1,0.2-0.1,0.3c-0.3-0.1-0.4-0.3-0.3-0.4c0.1-0.1,0-0.2-0.1-0.2
		c0-0.3,0-0.3,0.1-0.1c0.1,0.2,0.2,0.2,0.5,0.1C455.2,180.6,455.1,180.7,455.1,180.8z M456.7,175.2c-0.2,0-0.2,0.1-0.1,0.4
		c-0.1,0-0.2-0.1-0.2-0.2v-0.2c0.1,0,0.2-0.1,0.2-0.4C456.9,175.1,456.9,175.2,456.7,175.2z M457.7,173.2c-0.1-0.1-0.3-0.1-0.6,0
		c0.1-0.1,0.2-0.3,0.2-0.6c0.3,0.3,0.5,0.5,0.6,0.5c0.1,0.1,0.3,0.2,0.4,0.5C458,173.4,457.8,173.3,457.7,173.2z M458.5,175.2
		c-0.3,0.1-0.4,0.1-0.3-0.2c0.1-0.3,0.1-0.6,0.1-0.8C458.4,174.3,458.5,174.7,458.5,175.2z M458.7,177c0-0.2,0.1-0.3,0.2-0.3
		c0.1,0,0.2,0.2,0.2,0.6C458.9,177.3,458.7,177.2,458.7,177z M459,175.1c0-0.1,0-0.1,0-0.2c0,0.1,0,0.2,0.1,0.3
		C459,175.5,459,175.5,459,175.1z M459.1,175.5c0,0.7-0.3,1-0.8,1C457.9,175.8,458.2,175.5,459.1,175.5z M458.9,172.3
		c0,0.3-0.1,0.4-0.2,0.4c-0.1,0-0.1,0.1,0.2,0.2c-0.3,0.3-0.5,0.2-0.5-0.1C458.3,172.5,458.5,172.3,458.9,172.3z M460.5,166.2
		c0.2-0.5,0.4-0.7,0.5-0.7c-0.1,0.6-0.2,0.9-0.3,1c-0.1,0.1,0,0.4,0.1,0.8C460.4,167,460.3,166.6,460.5,166.2z M461.1,168.2
		c0.1,0.3,0,0.7-0.3,0.9c-0.1-0.1-0.2-0.4-0.1-0.7c0.1-0.3,0-0.7-0.1-0.9C460.9,167.7,461.1,167.9,461.1,168.2z M460.9,163.7
		c0.1-0.1,0-0.3-0.1-0.6c0.3,0,0.4,0.4,0.4,1C460.9,164,460.8,163.9,460.9,163.7z M461.9,166.1c-0.1,0-0.2,0-0.2-0.1
		c0-0.1-0.1-0.1-0.2-0.1c0-0.1,0.1-0.2,0.2-0.1c0.1,0.1,0.2,0,0.2-0.3c0.1,0,0.2,0.1,0.2,0.4C462.1,166,462,166.1,461.9,166.1z
		 M463.9,160c-0.1,0.1-0.2,0.6-0.2,1.5c-0.3-0.3-0.4-0.6-0.3-0.8c0.1-0.3,0.2-0.6,0.3-0.8c0.4,0,0.6,0.2,0.6,0.6L463.9,160z
		 M466.4,157.7c0.1-0.3,0.2-0.4,0.5-0.4c-0.6,0.7-0.6,1.2,0,1.5c0,0.1-0.1,0.2-0.3,0.1c-0.2-0.1-0.2,0,0.1,0.3
		c-0.3,0.1-0.5,0-0.6-0.3c-0.1-0.3-0.2-0.7-0.2-0.9C466.1,158,466.3,158,466.4,157.7z M466.7,153.6c-0.3-0.1-0.3,0-0.2,0.3
		c-0.3-0.1-0.3-0.3-0.1-0.4c0.2-0.1,0.3-0.3,0.3-0.4c0.1,0,0.2,0.1,0.2,0.2c0,0.1,0.1,0.2,0.2,0.2
		C467.1,153.6,466.9,153.7,466.7,153.6z M467.4,152.9c-0.2,0-0.3-0.1-0.3-0.4c0.1,0.3,0.4,0.2,0.8-0.2h-0.2c0.3-0.3,0.4-0.3,0.3,0
		c-0.1,0.3,0,0.6,0.1,0.8C467.8,152.9,467.6,152.9,467.4,152.9z M470.2,150.8c-0.4,0-0.6-0.1-0.6-0.4c-0.1,0.1-0.2,0.3-0.1,0.5
		c0.1,0.2,0.1,0.5,0.1,0.7c0,0.3-0.1,0.4-0.2,0.3c-0.1-0.1-0.1,0,0,0.3c-0.3-0.1-0.5,0-0.7,0.3c-0.2,0.4-0.2,0.7,0.1,0.9
		c-0.3,0-0.4-0.2-0.4-0.6s0.1-0.6,0.4-0.6c-0.1-0.3-0.2-0.3-0.3-0.1c-0.1,0.2-0.2,0.2-0.3-0.1c0-0.4,0.1-0.8,0.3-1.3
		c0.2-0.4,0.2-0.8-0.1-1c0-0.1,0.1-0.1,0.3,0.1c0.1-0.2,0.2-0.4,0.3-0.5v0.8c0,0,0,0-0.1,0c0,0.1,0.1,0.2,0.1,0.2
		c0.1,0,0.2-0.1,0.2-0.3c0-0.2,0.1-0.4,0.4-0.5c0.1,0,0.2,0,0.2,0.1c0,0.1,0.1,0.1,0.4,0.1V150.8z M471.9,146.1
		c-0.3,0.2-0.3,0.5,0,0.9c-0.3-0.1-0.4-0.1-0.4,0.1c0,0.2-0.1,0.2-0.4,0.1c0,0.3,0.1,0.5,0.3,0.6c-0.1,0-0.2,0.1-0.3,0.2
		c-0.3,0.3-0.6,0.7-0.8,1.3c-0.1-0.3-0.1-0.6,0-0.9c0.1-0.3,0.3-0.5,0.6-0.5c0-0.3-0.1-0.4-0.2-0.4c-0.1,0-0.2-0.1-0.2-0.4
		c0.1,0,0.2,0,0.2,0.1c0,0.1,0.1,0.1,0.2,0.1c0.1-0.3,0.2-0.4,0.1-0.4c-0.1,0-0.1-0.1-0.1-0.2c-0.3-0.3-0.3-0.3,0-0.1
		c0.3,0.2,0.4,0.4,0.4,0.5c0.3-0.1,0.3-0.3,0.2-0.5c-0.1-0.2-0.3-0.4-0.4-0.5c0.1,0.1,0.3,0.1,0.5,0c0.2-0.1,0.2-0.3-0.1-0.6
		C472,145.6,472.2,145.9,471.9,146.1z M472,145.3c0.1-0.3,0-0.3-0.3-0.2v-0.6c0,0.3,0.1,0.5,0.3,0.5c0.2,0.1,0.3,0.2,0.3,0.5
		C472,145.7,471.9,145.6,472,145.3z M473.6,143c-0.1,0.3-0.2,0.5-0.2,0.6c-0.3-0.3-0.3-0.5-0.2-0.6c0.1-0.1,0.1-0.3,0.1-0.4
		c0,0,0,0,0,0c0.1,0,0.1-0.1,0.1-0.2C473.6,142.6,473.7,142.8,473.6,143z M473.3,142.1c-0.1-0.2,0-0.4,0.1-0.5
		c0.3,0,0.4,0.2,0.4,0.6C473.5,142.4,473.3,142.3,473.3,142.1z M474.8,141c-0.3,0-0.4,0.2-0.4,0.5c0,0.3-0.1,0.7-0.2,0.9
		c-0.1-0.3-0.1-0.6,0-1c0.1-0.4,0.1-0.7-0.2-0.8c0.3,0,0.5-0.1,0.6-0.2c0.3-0.1,0.3-0.1,0.1,0.2C474.5,140.8,474.5,141,474.8,141z"
		/>
	<path class="st0" d="M588.7,157.4C588.7,157.4,588.7,157.4,588.7,157.4C588.7,157.4,588.7,157.5,588.7,157.4z"/>
	<path class="st0" d="M490.6,103c0.2,0.8,0.9,1.4,1.5,1.8c0.6,0.4,1.2,0.9,1.9,1.1c0.1,0.1,0.3,0.1,0.4,0.1c0.3,0.1,0.7,0.2,1,0.2
		c0.4,0,0.8-0.1,1.3-0.2c0.1-0.1,0.3,0,0.4-0.1c0.1,0,0.1,0,0.2-0.1c2.3-0.8,3.8-2.3,4.6-4.6c0.2-0.5,0.3-1,0.5-1.4
		c0.3-0.9,0.4-0.4,0.6-1c0.1-0.5,0.2-1.2,0.3-1.8c0-0.4,0-0.8-0.1-1.2c0-0.2,0-0.4-0.1-0.6c-0.4-2-1.1-3.7-2.2-5
		c0-0.1,0-0.2-0.1-0.3c0,0-0.1,0.1-0.1,0.1c-0.1-0.2-0.3-0.3-0.4-0.5c0,0-0.1-0.1-0.1-0.1c0,0,0,0,0,0c-0.1-0.1,0.2-0.1,0.6-0.2
		c-0.3-0.2-0.5-0.5-0.8-0.7c0.1-0.1,0-0.3,0-0.3c-0.4-0.4-1.1-0.7-1.7-0.7c-0.7-0.1-1.3,0-1.8,0.2c0.2,0,0.3,0,0.3,0.1
		c-0.5,0.2-0.5,0-0.7,0c-0.5,0.2-0.3,0.5-0.4,0.7c-0.7,0.3-0.7,0.5-1.3,0.7l0.2,0.1c-0.4,0.2-0.7,0.5-0.6,0.4
		c-0.3,0.4-0.6,0.1-0.6,0.1c-0.2,0.3-0.5,0.7-0.5,0.4c-0.2,0.6-0.9,1.4-1.2,2.1l-0.1-0.1c0,0.4-0.7,1.3-0.6,1.7l-0.1,0
		c0,0.3,0,0.5,0,0.8c-0.1,0.3-0.3,0.1-0.3,0.2c-0.2,0.7-0.3,1.3-0.5,1.8c0.2,0.2,0.1,1,0.1,1.6C490,99.9,490.1,101.6,490.6,103z
		 M503.1,97.7c0,0.1,0,0.2,0,0.4C503.1,97.8,503.1,97.7,503.1,97.7z"/>
	<path class="st0" d="M175.9,107.4c-0.1-0.1-0.2-0.3-0.1-0.4c0.1-0.1,0-0.3-0.1-0.4c0,0.1,0,0.3-0.1,0.6
		C175.5,107.5,175.6,107.5,175.9,107.4z"/>
	<path class="st0" d="M119.5,149.4c0.3,0.1,0.4,0,0.3-0.3c0-0.1,0-0.2,0-0.2c-0.1,0.1-0.2,0.1-0.4,0.1
		C119.1,149,119.2,149.2,119.5,149.4z"/>
	<path class="st0" d="M137.4,62.9c0-0.3-0.1-0.5-0.2-0.5c-0.1-0.1-0.1-0.2,0.2-0.5c-0.4,0-0.6,0.1-0.6,0.2
		C136.8,62.4,137,62.7,137.4,62.9z"/>
	<path class="st0" d="M136.4,59.5c-0.3-0.1-0.3-0.1-0.2,0.1c0.1,0.1,0.1,0.2,0.1,0.2C136.3,59.7,136.3,59.6,136.4,59.5z"/>
	<path class="st0" d="M119.8,148.9c0,0,0.1,0,0.1-0.1c0,0,0,0,0,0C119.8,148.8,119.8,148.8,119.8,148.9z"/>
	<path class="st0" d="M131.2,151.9c0,0,0.1,0.1,0,0.2c-0.1,0.2,0,0.3,0.1,0.3C131.5,152.1,131.4,152,131.2,151.9z"/>
	<path class="st0" d="M137.4,63.5c-0.1,0-0.2-0.1-0.3-0.2c0,0,0,0,0,0.1C137.1,63.6,137.2,63.6,137.4,63.5z"/>
	<path class="st0" d="M74.5,210.3c0,0.3-0.1,0.4-0.2,0.4c-0.1,0-0.2,0.1-0.2,0.4c0.3,0,0.5-0.1,0.6-0.3
		C74.8,210.6,74.8,210.4,74.5,210.3z"/>
	<path class="st0" d="M109.2,89.8v1c0.1-0.1,0.2-0.3,0.3-0.6C109.6,90,109.5,89.8,109.2,89.8z"/>
	<path class="st0" d="M135.6,144.4c0.1,0.3,0.2,0.5,0.2,0.7s0.1,0.3,0.4,0.3c-0.1-0.1-0.2-0.3-0.2-0.6
		C136,144.6,135.8,144.4,135.6,144.4z"/>
	<path class="st0" d="M134.6,93.2c-0.3,0.1-0.3,0.3,0.1,0.6c0-0.3,0.1-0.5,0.3-0.7c0.2-0.2,0.2-0.5-0.1-0.7
		C135.1,92.8,135,93,134.6,93.2z"/>
	<path class="st0" d="M94.4,99.9c0.1-0.3,0-0.4-0.3-0.4c-0.3,0-0.4,0.1-0.1,0.4c0.1-0.3,0.2-0.3,0.1,0
		C94,100.2,94.1,100.2,94.4,99.9z"/>
	<path class="st0" d="M137.6,67.7c0,0.1,0,0.2-0.1,0.2c-0.1,0-0.1,0.1-0.1,0.4h0.4l0.2-0.2c-0.3,0-0.4-0.1-0.3-0.2
		C137.8,67.7,137.8,67.7,137.6,67.7z"/>
	<path class="st0" d="M175.1,128.9c0.3,0,0.5-0.1,0.7-0.3c0.2-0.2,0.2-0.4-0.1-0.5v0.4c-0.1-0.1-0.3-0.2-0.5-0.2
		c-0.2,0-0.2,0.1,0.1,0.2c0.1,0,0.2,0.1,0.2,0.2C175.5,128.6,175.4,128.7,175.1,128.9z"/>
	<path class="st0" d="M136.9,63.1c0.1,0.1,0.2,0.2,0.3,0.2C137.1,63.2,137,63.1,136.9,63.1z"/>
	<path class="st0" d="M175.5,135.3c0.3-0.1,0.3-0.2,0-0.3c0,0.1-0.1,0.1-0.2,0h-0.2c-0.1,0.1-0.2,0.3-0.2,0.5c0,0.2,0.1,0.3,0.4,0.3
		C175.1,135.6,175.2,135.4,175.5,135.3z"/>
	<path class="st0" d="M175.6,124.7c-0.2,0.2-0.2,0.3,0.1,0.3c0-0.1,0.1-0.3,0.2-0.6c0.1-0.3,0.1-0.4-0.2-0.4
		C175.8,124.2,175.8,124.4,175.6,124.7z"/>
	<path class="st0" d="M175.2,136.3c0,0,0,0.1,0.1,0.1c0-0.1,0-0.2,0-0.3C175,135.9,175,136,175.2,136.3z"/>
	<path class="st0" d="M175.2,136.4c0,0.1,0,0.1,0,0.2C175.3,136.5,175.3,136.5,175.2,136.4z"/>
	<path class="st0" d="M176.4,144.3c0.1,0,0.2,0,0.3-0.1C176.7,144.2,176.5,144.2,176.4,144.3z"/>
	<path class="st0" d="M155.3,105.3C155.3,105.3,155.3,105.3,155.3,105.3C155.3,105.3,155.3,105.3,155.3,105.3z"/>
	<path class="st0" d="M186.2,157.2c0-1-0.3-2.3-0.9-2.7c-0.2-0.1-0.5,0.1-0.5,0.3c0,1.1-0.1,2.5-0.3,3.5c-0.3,0.7-0.5,0-0.9,0.6
		c-0.2,0.3-0.4,0.6-0.6,0.8l-0.6,0.2c-0.3-0.4-0.6-0.6-1-0.5c-0.4,0.1-0.8-0.2-1-0.9c0.1,0.3,0.1,0.4,0,0.3c-0.1-0.1-0.3,0-0.4,0.1
		c-0.4-0.4-0.6-0.7-0.6-0.9c0-0.2-0.3-0.5-0.8-0.7c0.3,0,0.5-0.1,0.5-0.4c0.1-0.3,0-0.4-0.1-0.4c0,0.1-0.1,0.4-0.4,0.6
		c0-0.7-0.2-1.1-0.5-1.1c-0.3-0.1-0.5-0.5-0.3-1.1c0.3,0.1,0.4,0.3,0.3,0.5c-0.1,0.2,0,0.3,0.3,0.3c-0.7-1.7-1-3.3-1-4.8
		c0,0.3-0.1,0.4-0.2,0.4c0-0.3,0-0.4-0.1-0.4c-0.1,0-0.1-0.1-0.1-0.2c0.1-0.4,0.2-0.8,0.2-1.1c0-0.3,0.1-0.7,0.4-1.2
		c-0.3-0.1-0.4-0.1-0.3,0.2c0.1,0.3,0,0.5-0.3,0.6c0-0.4-0.1-0.7-0.2-0.8c0.1,0,0.2,0,0.2,0.1c0,0.1,0.1,0.1,0.2,0.1
		c0-0.3-0.2-0.5-0.6-0.8c0.1-0.6,0.1-1.1-0.1-1.5c-0.4-0.1-0.5-0.1-0.3,0.1c0.2,0.2,0.2,0.3-0.1,0.3c-0.1-0.1-0.3-0.3-0.4-0.6
		c0,0,0-0.1,0-0.1c0,0.1,0.1,0.1,0.2,0.1c0.4-0.3,0.5-0.6,0.3-0.8c-0.2-0.3-0.2-0.6,0.1-0.8c-0.1,0.3-0.1,0.4,0.1,0.2
		c0.1,0,0.1-0.1,0.2-0.1c-0.1,0-0.1,0-0.1-0.1c0-0.1-0.1-0.3-0.2-0.4c0,0.3-0.1,0.4-0.3,0.4c-0.2,0-0.3-0.1-0.3-0.4
		c0.3,0,0.3-0.1,0.2-0.4l-0.8,0.4c0-0.4,0.1-0.6,0.3-0.5c0.2,0.1,0.4,0,0.5-0.3c-0.3-0.6-0.3-1.2-0.2-1.9c0.1-0.7,0-1.1-0.4-1.3
		c0.3-0.6,0.4-1.1,0.4-1.8c0-0.6,0.1-1.2,0.2-1.8l-0.6,1.3c0-0.3,0-0.5,0.1-0.7c0-0.1,0-0.2,0-0.3c-0.1,0-0.2,0-0.4-0.1
		c-0.3-0.3-0.4-0.6-0.3-0.9c0.1-0.3,0-0.7-0.1-0.9h0.6c-0.1-0.3-0.1-0.5,0-0.5c0.1-0.1,0.1-0.2-0.2-0.3c0.1-0.4,0.6-0.8,1.3-1
		c-0.1,0-0.2-0.1-0.2-0.2c0-0.1,0.1-0.3,0.2-0.4c-0.3,0-0.5,0.1-0.5,0.2c-0.1,0.1-0.2,0.3-0.5,0.4c-0.3-0.1-0.2-0.4,0.2-0.8
		c-0.1-0.3-0.3-0.3-0.4,0c-0.1,0.3-0.3,0.3-0.4,0c0.3-0.4,0.6-0.9,0.8-1.5c-0.3-0.1-0.4-0.3-0.3-0.5c0.1-0.2,0-0.4-0.3-0.5
		c0.3,0,0.5-0.1,0.6-0.2c-0.3,0-0.4-0.2-0.4-0.5c0-0.3-0.1-0.5-0.4-0.5c0.4-0.1,0.6-0.4,0.6-0.7c0-0.3,0.1-0.7,0.4-0.9
		c-0.3,0-0.3-0.1-0.2-0.4c0.1-0.3,0.1-0.3-0.2-0.2v-0.6c0,0.3,0.1,0.4,0.2,0.4c-0.3-0.7-0.1-1.3,0.4-1.7c-0.1-0.3-0.3-0.5-0.4-0.7
		c-0.1-0.2-0.3-0.5-0.4-0.7v-1c0.3,0.1,0.4,0.3,0.3,0.4c-0.1,0.1,0,0.3,0.3,0.6h-0.4l0.6,1.3c-0.1-1-0.1-1.8,0.2-2.5
		c-0.1,0-0.2,0.1-0.3,0.2c-0.1,0.1-0.2,0.1-0.3-0.2c0.1-0.3,0.2-0.3,0.3-0.2c0.1,0.1,0.1,0.1,0.1,0c-0.1-0.1-0.2-0.3-0.3-0.4
		c-0.1-0.1-0.2-0.3-0.3-0.4c0.6-0.4,0.8-1,0.7-1.8c-0.1-0.8-0.1-1.5-0.1-2.2c-0.3-0.1-0.3-0.1-0.2,0.2c0.1,0.3,0.1,0.4-0.2,0.4
		c0-0.3,0-0.4-0.1-0.4c-0.1,0-0.1-0.1-0.1-0.2c0.4,0,0.6-0.2,0.5-0.6c-0.1-0.4,0-0.8,0.1-1c-0.3-0.1-0.5-0.2-0.5-0.1
		c-0.1,0.1-0.2,0-0.3-0.3c0.1,0,0.2-0.1,0.2-0.3c0-0.2,0.1-0.3,0.2-0.3c0,0.4,0.1,0.7,0.4,0.8c0.1-0.3,0.1-0.6-0.1-0.9
		c-0.2-0.3-0.2-0.7,0.1-0.9c-0.4-0.4-0.6-0.7-0.6-0.8c0.1,0,0.2,0.1,0.2,0.2c0,0.1,0.1,0.1,0.4,0c0-0.3-0.1-0.4-0.2-0.4
		c-0.1,0-0.1-0.2,0.2-0.6c0.1,0,0.2,0,0.2,0.1c0,0.1,0.1,0.1,0.2,0.1c-0.3-0.4-0.3-0.9-0.2-1.5c0.1-0.6,0-0.7-0.4-0.4
		c0-1.8-0.1-3.7-0.2-5.8c-0.1-2-0.4-4-0.6-6c0.3-0.1,0.4-0.5,0.3-0.9c-0.1-0.5-0.2-0.8-0.5-0.9c0.3-0.3,0.3-0.4,0.2-0.4
		c-0.1,0-0.1-0.1,0-0.4c-0.2,0-0.3,0-0.4,0.1c0.2-0.4,0.2-0.7-0.1-0.9c-0.3-0.3-0.2-0.6,0.2-0.8c-0.3-0.3-0.5-0.3-0.6,0
		c-0.1,0.3-0.3,0.3-0.4,0c0.4-0.6,0.5-1,0.3-1.3c-0.2-0.3-0.3-0.8-0.3-1.5c-1.1-0.8-1.6-1.8-1.5-2.9c-0.3,0.1-0.4,0.1-0.4-0.1
		c0-0.2-0.1-0.3-0.2-0.3c-0.1,0.1-0.2,0.2-0.3,0.2c-0.1,0-0.2,0.1-0.3,0.2c0-0.6-0.1-0.8-0.2-0.8c-1.1-0.4-2.5-0.5-4.1-0.3
		c-1.6,0.2-3,0.7-4.1,1.4c-0.1,0.7-0.7,1.2-1.7,1.5c-0.7,0.8-1.4,1.7-2.1,2.5c-0.7,0.8-1.4,1.5-2.1,2.1c0,0.3-0.1,0.7-0.4,1.3
		c0-0.3-0.1-0.4-0.2-0.4c-0.1,0-0.2,0.1-0.1,0.3c0.1,0.2,0,0.3-0.1,0.3c0-0.4-0.1-0.6-0.4-0.4v1c-0.3,0-0.4,0-0.3,0.1
		c0.1,0.1,0,0-0.3-0.1c0,0.6-0.2,0.9-0.5,1.1c-0.4,0.2-0.5,0.6-0.5,1.2c-0.3-0.3-0.4-0.2-0.4,0.3c0,0.5-0.2,0.6-0.6,0.3v1
		c-0.3-0.3-0.4-0.3-0.3-0.1c0.1,0.2,0,0.3-0.3,0.3v0.6c-0.1,0.1-0.2,0.3-0.2,0.4c0,0.1-0.1,0.1-0.4-0.2c0.1,0.7,0,1.1-0.5,1.3
		c-0.5,0.1-0.6,0.4-0.3,0.6c-0.3,0.1-0.4,0.2-0.4,0.1c0-0.1-0.1,0-0.4,0.1c-0.1,0.4-0.3,0.8-0.4,1.3c-0.1,0.4-0.3,0.6-0.6,0.6
		c0.1,0.4,0.1,0.6-0.1,0.6s-0.4,0.1-0.5,0.4c0,1.1-0.6,2-1.7,2.5v0.6h-0.4c0,0.3-0.1,0.6-0.2,0.9c-0.1,0.3-0.3,0.4-0.6,0.1
		c0.1,0.7,0,1.3-0.4,1.8c-0.4,0.5-0.8,0.8-1,0.9c0,0.7-0.1,1-0.4,1v-0.2V113c0,0.7-0.2,1.3-0.6,1.9c-0.4,0.6-0.6,1.1-0.6,1.7
		l-0.2-0.2c0,0.7-0.1,1-0.4,1v-0.2c-0.3,0.7-0.6,1.5-0.9,2.3c-0.3,0.8-0.8,1.4-1.4,1.7c0.3,0.3,0.3,0.5,0,0.6
		c-0.3,0.1-0.4,0.3-0.2,0.6h-0.4c0,1-0.2,1.5-0.6,1.5c0.3,0.3,0.3,0.4,0.2,0.4c-0.1,0-0.3-0.1-0.4-0.2c0.1,0.3,0.2,0.6,0.1,0.9
		c-0.1,0.3-0.2,0.3-0.5-0.1c0,0.3,0,0.5-0.1,0.6c-0.1,0.1-0.1,0.3-0.1,0.6h-0.4c0,0.4-0.1,1-0.3,1.7c-0.2,0.7-0.5,0.9-0.7,0.6
		c0.1,0.4,0.1,0.7-0.2,0.8c-0.3,0.1-0.3,0.3,0,0.6c-0.1,0.1-0.2,0.1-0.2,0c0-0.1-0.1-0.1-0.4,0c-0.1,0.1-0.1,0.2,0.2,0.3
		c0.3,0.1,0.3,0.2,0,0.3c-0.3-0.3-0.4-0.3-0.4,0c0.1,0,0.2,0.1,0.1,0.4c-0.1,0.3-0.2,0.3-0.5,0.2c-0.1,0.3-0.1,0.5,0,0.6
		c0.1,0.1,0.1,0.3-0.2,0.6c-0.3,0-0.4-0.1-0.3-0.3c0.1-0.2,0-0.2-0.3-0.1c0.3,0.4,0.3,0.8,0,1.3c-0.3,0.4-0.4,0.8-0.4,1
		c-0.6,0.1-0.8,0.4-0.6,0.6c0.1,0.3,0.1,0.7-0.2,1.3c-0.1,0-0.5,0.3-1,1c-0.2,0.3-0.3,0.4-0.4,0.6c-0.1-2.7-0.1-5.8,0.2-9.3
		c0.3-3.6,0.7-7.2,1.1-11.1c0.5-3.8,1-7.8,1.5-11.8c0.5-4,0.9-7.9,1.4-11.7c-0.1-0.1-0.2-0.2-0.2-0.3c0-0.1-0.1-0.2-0.2-0.3
		c0.6-0.3,0.8-0.8,0.6-1.5c-0.1-0.7-0.1-1.2,0.2-1.5c-0.1-0.1-0.2-0.2-0.2-0.3c0-0.1-0.1-0.2-0.2-0.3c0.3-0.4,0.5-0.9,0.6-1.4
		c0.1-0.5,0.1-0.9-0.2-1.1c0.3,0.3,0.4,0.3,0.3,0c-0.1-0.3,0-0.3,0.3-0.2c0.1-1,0.2-1.8,0.2-2.6c0-0.8,0.1-1.3,0.4-1.6
		c0-1.4,0-2.4,0.1-3c0.1-0.6,0.2-1.7,0.5-3.2l0.6-0.6c-0.4-0.8-0.4-2,0-3.3c0.4-1.4,0.5-2.6,0.2-3.8l-0.2,0.2
		c-0.3-0.3-0.4-0.7-0.2-1.2c0.1-0.5,0.4-0.7,0.8-0.7c0-0.6-0.2-0.8-0.6-0.6c0,0.1,0.1,0.2,0.2,0.3c0.1,0.1,0.1,0.2-0.2,0.3
		c-0.3-0.6-0.2-1.1,0.3-1.6c0.5-0.5,0.5-0.9,0.1-1.4c0,0.3-0.1,0.4-0.2,0.4c0.1-0.3,0.1-0.4-0.2-0.3c-0.3,0.1-0.4,0-0.4-0.3
		c0.3-0.3,0.3-0.5,0.1-0.5c-0.2-0.1-0.3-0.2-0.3-0.5c0,0,0,0,0,0c-0.3-0.3-0.5-0.7-0.5-1.3c0-0.8-0.2-1.1-0.6-0.8
		c0.2-0.3,0.2-0.5,0.2-0.6c0.1,0,0.1,0,0.3-0.1c0-0.2,0-0.4,0-0.5c0,0.1-0.1,0.1-0.3,0.1c-0.1-0.6-0.1-1,0.2-1.3
		c-0.7,0.4-1,0.2-1-0.6c-0.3-0.1-0.4,0-0.4,0.3c0,0.3-0.1,0.4-0.4,0.1c0.3-0.1,0.4-0.3,0.4-0.4c0-0.1,0.1-0.3,0.2-0.4
		c0.4,0.3,0.7,0.3,0.8,0c-0.4,0-0.8-0.3-1.2-0.8c-0.3-0.6-0.5-1-0.5-1.5c-0.3-0.1-0.4-0.1-0.3,0.2c0.1,0.3,0,0.4-0.1,0.4
		c-0.1-0.4-0.4-0.5-0.6-0.2c0.1-0.3,0.1-0.4-0.1-0.4c-0.2,0-0.2-0.1-0.1-0.4c-0.3-0.1-0.4-0.1-0.4,0c0,0.1-0.1,0.3-0.4,0.4
		c-0.1-0.6-0.4-0.8-0.8-0.6c0-0.1,0-0.2,0.1-0.2c0.1,0,0.1-0.1,0.1-0.2c-0.6-0.3-0.9-0.3-1-0.2c-0.1,0.1-0.3,0-0.6-0.4
		c-0.7,0-1.6,0.1-2.7,0.2c-1.1,0.1-2,0.5-2.7,1c-0.7,1-1.5,1.9-2.5,2.7c-1,0.8-1.8,1.5-2.5,2.1c0,0.6-0.2,0.8-0.6,0.8
		c0,0.3,0,0.6,0,0.8c0,0.3-0.1,0.4-0.4,0.4c0-0.1,0.1-0.3,0.2-0.4c-2.2,2-4.1,4.2-5.8,6.8c-1.6,2.6-3.2,5.1-4.9,7.6
		c0.3,0,0.4-0.1,0.4-0.4c0-0.3,0.1-0.5,0.4-0.6c0,0.7-0.2,1.2-0.7,1.6c-0.5,0.3-0.9,0.7-1.2,1.2c0,0.1,0,0.2,0.1,0.1
		c0.1-0.1,0.1,0,0.1,0.1c-0.3,0.1-0.5,0.4-0.6,0.6c-0.1,0.3-0.3,0.5-0.6,0.6c0.3,0.3,0.3,0.4,0,0.4c-0.3,0-0.3,0.1,0,0.4
		c-0.6,1.1-1.3,2.2-2.2,3.1c-0.9,1-1.5,2.1-1.8,3.3c0.3,0,0.4,0,0.4-0.1c0-0.1,0.1-0.1,0.2-0.1c0,0.1,0,0.4,0,0.6
		c0,0.3-0.1,0.4-0.4,0.4c0-0.4-0.1-0.6-0.2-0.6c-0.6,0.4-0.9,1-1.1,1.8c-0.2,0.8-0.5,1.5-0.7,2.2c-0.3-0.1-0.5-0.1-0.5,0.2
		C99.2,91,99,91,98.8,90.9c-0.7,1.3-1.4,2.6-2,4.2c-0.6,1.5-1.4,2.7-2.2,3.3c0,0.7,0.1,1.2,0.2,1.5c-0.6,0-1,0.4-1.5,1.3
		c-0.4,0.8-0.3,1.1,0.2,0.8c-0.1,0.3-0.3,0.6-0.6,0.8c0-0.3-0.1-0.4-0.2-0.4c-0.1,1-0.5,1.7-1,2.3c-0.6,0.6-0.8,1.3-0.6,2.3
		c-0.3-0.3-0.4-0.3-0.3,0c0.1,0.3,0.2,0.5,0.3,0.6c-0.6,0-0.8,0.2-0.6,0.5c0.1,0.3,0.1,0.7-0.2,0.9c0-0.3,0-0.5-0.1-0.5
		c-0.1-0.1,0-0.2,0.1-0.5c-0.6,0.3-0.7,0.6-0.4,0.9c0.3,0.3,0.3,0.8,0,1.4c-0.4,0-0.6,0.3-0.6,1c-0.1-0.1-0.2-0.3-0.2-0.4
		c0-0.1-0.1-0.3-0.2-0.4c0,0.4,0,0.7,0,0.9c0,0.2-0.1,0.2-0.4-0.1c0.3,1-0.1,1.7-1,2.3c0.3,0.1,0.4,0.1,0.4,0c0-0.1,0.1-0.2,0.2-0.2
		c-0.1,0.3-0.2,0.6-0.3,1c-0.1,0.4-0.2,0.5-0.5,0.2c0.1,0.7,0,1.4-0.4,2.1c-0.4,0.7-0.8,1.1-1,1.3c0,0.3,0,0.4,0.1,0.4
		c0.1,0,0.1,0.1,0.1,0.4c-0.3,0.3-0.6,0.8-0.8,1.7c-0.3,0.8-0.6,1.5-0.8,2.1c0.1-0.7,0.1-1.6,0-2.7c-0.1-1.1,0.1-2,0.6-2.7
		c0.1-0.3,0.1-0.5-0.1-0.5c-0.2-0.1-0.2-0.2-0.1-0.5c0.8-0.8,1.1-2,0.8-3.6c0.8-2.6,1.4-5.7,1.7-9.2c1.3-4.5,2.3-9.2,3-14.1
		c0.8-4.9,2-9.6,3.7-13.9c-0.1-0.1-0.2-0.1-0.3,0c-0.1,0.1-0.1,0.1-0.1,0c0.4-1,0.7-2,0.7-3c0.1-1,0.5-1.9,1.2-2.6
		c1.1-4.2,2.3-8.3,3.7-12.3c1.3-4,2.5-8.3,3.4-12.8c0.2-1.5-0.5-2.2-0.1-3.2c0.3-1,0.4-2.3,0.1-3.7c0.6-1.5,0.6-3.3,0.1-5.3
		c-0.5-2-1.4-3.6-2.6-4.7c-2-0.7-3.5-0.6-4.7,0.3c-1.2,0.9-2.1,1.9-2.6,3c-0.8,2.1-1.8,4.5-2.8,7.2c-1,2.7-1.9,5.1-2.6,7
		c0.3,0.1,0.2,0.4-0.3,0.8c-0.5,0.4-0.5,0.5,0.1,0.2c0.1,0.6,0.1,1-0.2,1.3c-0.3,0.3-0.3,0.6,0,0.8c-0.1-0.1-0.2-0.1-0.2,0
		c0,0.1-0.1,0.2-0.4,0.2c0,0.8-0.2,1.4-0.6,1.7c-0.6,3.1-1.3,5.9-2.1,8.5c-0.8,2.6-1.4,5.1-1.7,7.4c-0.3-0.3-0.4-0.2-0.4,0.1
		c0,0.4-0.1,0.6-0.2,0.7c0.3,0,0.4,0.1,0.4,0.2c-0.1,0.3-0.3,0.3-0.4,0v2.1c-0.4-0.3-0.5-0.2-0.3,0.1c0.2,0.4,0.1,0.5-0.3,0.3
		c-0.1,0.3-0.2,0.5-0.1,0.7c0.1,0.2,0,0.4-0.3,0.5c0.1,0.6,0,1.6-0.3,3c-0.3,1.5-0.7,2.5-1.1,3c0.1,1.1,0,2.3-0.3,3.6
		c-0.3,1.3-0.7,2.2-0.9,2.9c-1.1,5.3-2.2,10.7-3.1,16.2c-1,5.5-1.9,11-2.8,16.6c-0.9,5.6-1.7,11-2.5,16.3
		c-0.8,5.3-1.5,10.3-2.2,15.1c0.3,0.3,0.3,0.8,0.2,1.5c-0.1,0.7-0.3,1.2-0.6,1.5c0.3,0.3,0.3,0.9,0.2,1.8c-0.1,0.9-0.3,1.4-0.4,1.6
		c-0.1,2.8-0.4,5.7-0.8,8.8c-0.4,3.1-0.8,5.8-1,8.2c-0.3,7.1-0.8,14-1.5,20.6c-0.7,6.6-0.8,13.5-0.4,20.6c0.3,0.1,0.4,0.1,0.3,0
		c-0.1-0.1,0-0.2,0.3-0.2c0,0.1,0,0.2,0.1,0.2c0.1,0,0,0.1-0.1,0.4c-0.1,0-0.2,0-0.2-0.1c0-0.1-0.1-0.1-0.2-0.1
		c-0.3,0.7-0.1,1.4,0.4,2c0.6,0.6,1,0.8,1.3,0.5c-0.3,0.3-0.3,0.4,0,0.4c0.3,0,0.3,0.1,0.2,0.4c0.3-0.3,0.5-0.3,0.6,0
		c0.1,0.3,0.4,0.3,0.8,0.2c0-0.4,0.1-0.6,0.2-0.6c0.1,0.6,0.3,0.7,0.5,0.3c0.2-0.3,0.5-0.3,0.7,0.1c1.1-0.8,2.2-1.6,3.1-2.2
		c1-0.6,1.9-1.4,2.7-2.2c0.3,0.1,0.3,0.2,0.1,0.3c-0.2,0.1-0.2,0.2,0.1,0.3c0.1-0.1,0.3-0.2,0.5-0.2c0.2,0,0.3-0.1,0.3-0.2
		c0.1-0.3,0.1-0.4-0.1-0.4c-0.2,0-0.2-0.1-0.1-0.4c0.3-0.1,0.4-0.2,0.3-0.3c-0.1-0.1,0-0.2,0.1-0.3c0.1,0,0.2,0,0.2-0.1
		c0-0.1,0.1-0.1,0.2-0.1c-0.1,0.3,0,0.4,0.4,0.4c-0.1-0.1-0.1-0.2,0.1-0.3c0.2-0.1,0.2-0.2-0.1-0.3c-0.1,0.3-0.3,0.3-0.4,0.1
		c-0.1-0.2-0.1-0.5,0-0.7c0.3,0.3,0.5,0.4,0.6,0.4c0-0.7,0.1-1.1,0.4-1.3c0,0.1,0.1,0.2,0.2,0.2c0.3,0,0.4-0.1,0.4-0.2
		c-0.3-0.3-0.3-0.4-0.1-0.4c0.2,0,0.2-0.2-0.1-0.6c0.1,0,0.1-0.1,0.2-0.2c-0.3,0-0.4-0.1-0.4-0.3c0-0.2,0.1-0.3,0.4-0.3
		c0,0.6,0.1,0.8,0.4,0.8c-0.1-0.4-0.2-0.7-0.1-0.9c0.1-0.2,0-0.5-0.1-0.7h0.6c-0.4-0.7-0.4-1,0-0.8c-0.3-0.4-0.2-1,0.2-1.9
		c0.4-0.8,0.8-1.2,1-1c0.1-0.6,0.3-1.1,0.5-1.8c0.2-0.6,0.3-1.1,0.3-1.4c0,0.1,0,0.2-0.1,0.2c0,0-0.1,0-0.1,0.1
		c0.1-0.6,0.1-1,0.1-1.3c-0.1-0.3,0-0.8,0.3-1.5c-0.3,0-0.4,0-0.4,0.1c0,0.1-0.1,0.1-0.2,0.1c0.3-0.3,0.3-0.6,0-1
		c0.3-0.1,0.4,0,0.4,0.3c0,0.3,0.1,0.5,0.4,0.5c-0.3-0.8-0.5-1.5-0.5-1.9c-0.1-0.4,0-1,0.1-1.7c0,0.3,0.1,0.5,0.2,0.5
		c0.1,0.1,0.3,0.2,0.4,0.3c-0.3-0.6-0.3-1.1,0-1.7c0.3-0.6,0.3-1.1,0-1.7c0.7-1.7,0.8-3.1,0.4-4.4c0.8-1.3,0.9-2.7,0.2-4.2
		c0.3-0.3,0.5-0.6,0.6-1c0.1-0.4,0.1-0.7-0.2-0.8c0.4-0.3,0.6-0.7,0.6-1.3c0-0.6-0.1-1-0.2-1.5c-0.3,0-0.3,0.2-0.2,0.5
		c0.1,0.3,0.1,0.5-0.2,0.5c-0.4-0.4-0.4-0.9,0.1-1.5c0.5-0.6,0.5-1.2-0.1-1.9c0.3-0.7,0.6-1.6,0.8-2.8c0.3-1.2,0.3-2.2,0-3
		c0.6-1.5,0.8-3,0.7-4.4c-0.1-1.1,0-2.3,0.2-3.5c0,0.1,0.1,0.1,0.1,0.2c0.3-0.4,0.5-0.9,0.6-1.6c0.1-0.6,0.1-1.1-0.2-1.6
		c0.3-0.7,0.4-1.4,0.4-2.1c0-0.7,0.1-1.6,0.4-2.7c-0.3-0.1-0.4-0.3-0.3-0.5c0.1-0.2,0-0.4-0.3-0.5c0.3,0,0.4,0.1,0.4,0.2
		c0,0.1,0.1,0.1,0.2-0.2c0.1-0.3,0.1-0.7,0-1.3h0.6c-0.3,0-0.4-0.1-0.4-0.4c0.4-0.4,0.6-0.9,0.6-1.5c-0.1-0.1-0.3-0.2-0.4-0.2
		c-0.1,0-0.2-0.1-0.2-0.4c0.7,0,1.1-0.5,1.4-1.5c0.2-1,0.2-1.7,0.1-2.3c0.6-0.6,0.8-1.3,0.8-2.3c0-1,0.3-1.6,0.8-1.9
		c-0.1-0.8,0.1-1.7,0.7-2.5c0.6-0.8,0.8-1.7,0.5-2.5c0.3-0.3,0.6-0.8,0.9-1.7c0.3-0.8,0.5-1.6,0.3-2.3c0.6,0,0.8-0.1,0.7-0.4
		c-0.1-0.3,0-0.6,0.3-0.8c-0.1-0.3-0.3-0.5-0.6-0.7c-0.3-0.2-0.3-0.4,0-0.5c0,0.3,0.2,0.4,0.6,0.4c-0.3-0.4-0.1-0.8,0.6-1
		c0-1.1,0.2-2,0.6-2.5c0.4-0.6,0.7-1.4,0.8-2.5c0,0.3,0.1,0.4,0.2,0.4c0.3-0.3,0.3-0.5,0.2-0.6c-0.1-0.1,0-0.3,0.4-0.4
		c0-0.3-0.1-0.4-0.3-0.4c-0.2,0-0.2-0.1-0.1-0.4c0.1,0,0.3,0.1,0.4,0.2c-0.3-0.3-0.4-0.5-0.3-0.7c0.1-0.2,0.2-0.2,0.5,0.1
		c0,0.1,0,0.2-0.1,0.1c-0.1-0.1-0.1,0-0.1,0.1h0.2l0.2,0.2c0-0.7-0.1-1-0.2-1c0.4-0.1,0.6-0.3,0.6-0.5c0-0.2,0.1-0.2,0.4-0.1
		c-0.1-0.3-0.2-0.6-0.1-0.8c0.1-0.3,0-0.6-0.3-0.8c0.3-0.1,0.4-0.1,0.4,0c0,0.1,0.1,0.2,0.4,0.2c-0.4-0.6-0.4-1,0-1.5
		c0.4-0.4,0.6-0.9,0.4-1.5c0.6,0,0.9-0.2,0.9-0.7c0.1-0.5,0-0.9-0.1-1.1c0.3,0.3,0.3,0.3,0.2,0.2c-0.1-0.1-0.1-0.2,0.2-0.2
		c0.1,0,0.2,0,0.1,0.1c-0.1,0.1,0,0.1,0.1,0.1c0.1-0.3,0.2-0.5,0.3-0.7c0.1-0.2,0.2-0.2,0.5,0.1c0-0.3,0.1-0.6,0.2-1
		c0.1-0.4,0-0.7-0.4-0.8c0.3,0,0.3-0.1,0.2-0.4c-0.1-0.3-0.1-0.4,0.2-0.4c-0.3,0.4-0.2,0.6,0.2,0.6c0-1,0.3-1.2,0.8-0.6
		c-0.3-0.7-0.3-1.1-0.2-1.3l0.4,0.4c-0.3-0.3-0.2-0.5,0.1-0.6c0.3-0.1,0.4-0.3,0.1-0.4h-0.2c0.3-0.1,0.4-0.3,0.4-0.5
		c0-0.2,0.1-0.5,0.2-0.7c0,0.4,0,0.5,0.1,0.1c0.1-0.3,0.2-0.5,0.5-0.3c-0.1-0.3-0.2-0.5-0.1-0.6c0.1-0.1,0.1-0.3,0.1-0.6
		c0.3,0,0.5,0.1,0.5,0.2c0.1,0.1,0.1,0.1,0.1-0.2c-0.3-0.3-0.5-0.6-0.6-0.8c0.3,0.1,0.4,0.1,0.4-0.2c0-0.3,0.1-0.3,0.4,0
		c0.3-0.3,0.5-0.6,0.5-0.8c0.1-0.3,0.3-0.6,0.7-0.8c0-0.3,0-0.5-0.1-0.7c-0.1-0.2,0-0.5,0.1-0.7c0,0.3,0.1,0.4,0.4,0.4
		c0.1-0.3,0.2-0.6,0.1-1c-0.1-0.3,0-0.4,0.1-0.5c0,0,0,0.1,0,0.1c0,0.3,0.1,0.4,0.2,0.4c0.1-0.4,0.1-0.7,0-0.7
		c-0.1-0.1-0.3-0.2-0.4-0.5c0.3,0,0.5,0.1,0.5,0.2c0.1,0.1,0.2,0.2,0.5,0.2c0.1-1,0.4-1.8,0.8-2.5c0.3-0.5,0.5-1.1,0.6-1.6
		c0,0.1,0.1,0.2,0.2,0.4c0-0.3,0.1-0.4,0.4-0.4h-0.6c0-0.6,0.2-1,0.6-1.3c0,0.1,0.1,0.3,0.2,0.4c0.1-0.3,0.1-0.6-0.2-1
		c0.1,0,0.2,0,0.2,0.1c0,0.1,0.1,0.1,0.2,0.1c-0.1-0.3-0.1-0.5,0-0.6c0.1-0.1,0.1-0.1,0.1-0.1c0,0.2,0.1,0.4,0.3,0.6
		c0-0.4,0.1-0.7,0.2-0.9c0.1-0.2,0.1-0.5-0.2-0.7c0.4,0,0.6-0.1,0.4-0.4c-0.1-0.3-0.1-0.4,0-0.4c0,0.1,0.1,0.3,0.2,0.4
		c0.1,0.1,0.3,0.1,0.4-0.2c-0.1,0-0.2-0.3-0.2-0.8c0.1,0.1,0.2,0.2,0.2,0.3c0,0.1,0.1,0.2,0.4,0.3c0-0.3-0.1-0.5-0.2-0.5
		c-0.1-0.1-0.2-0.2-0.2-0.5c0.3,0.3,0.3,0.3,0.2,0.1c-0.1-0.2-0.2-0.5-0.2-0.7c0.3,0,0.5-0.1,0.7-0.4c0.2-0.3,0.5-0.4,0.9-0.4
		c-0.4-0.3-0.5-0.5-0.1-0.5c0.3-0.1,0.5-0.2,0.3-0.5c-0.3,0-0.4-0.1-0.4-0.2c0.4,0,0.6-0.1,0.5-0.2c-0.1-0.1,0-0.3,0.1-0.4
		c0,0.3,0.1,0.4,0.4,0.4c0.3-0.4,0.3-0.7,0-0.9c-0.3-0.2-0.3-0.5,0-0.7c0.1,0.3,0.2,0.4,0.3,0.2c0.1-0.1,0.2-0.2,0.5-0.2
		c0,0.3,0.1,0.4,0.4,0.4c0.1-0.1,0.2-0.3,0.2-0.6c-0.3-0.1-0.4-0.2-0.4-0.1c0,0.1-0.1,0-0.2-0.1c0-0.1,0-0.3,0-0.6
		c0-0.3,0.1-0.6,0.4-0.8c0.1,0,0.2,0.1,0.1,0.2c-0.1,0.1,0,0.3,0.1,0.4c0.1-0.3,0.2-0.6,0.3-1c0.1-0.4,0.2-0.8,0.3-1
		c0.1,0,0.2,0,0.2,0.1c0,0.1,0.1,0.1,0.2,0.1c0-0.4,0.1-0.9,0.4-1.6c0.3-0.6,0.6-0.8,0.8-0.5c0-0.3,0.1-0.5,0.3-0.6
		c0.2-0.1,0.2-0.3-0.1-0.6c0.1,0,0.2,0,0.2,0.1c0,0.1,0.1,0.1,0.2,0.1c0.1-0.6,0.3-1,0.6-1.3c0.3-0.3,0.3-0.7,0-1.3
		c0.3,0,0.5-0.1,0.5-0.3c0.1-0.2,0.3-0.2,0.7-0.1c0.1-0.1,0.2-0.5,0.2-0.9c0-0.5,0.1-0.5,0.4-0.1c0-0.7,0.1-1,0.4-1
		c0,0.3,0.1,0.5,0.2,0.6c-0.3-1.5,0.3-2.6,1.7-3.1c-0.1-0.3-0.2-0.6-0.3-0.9c-0.1-0.3,0.1-0.5,0.5-0.5c-0.1,0.1-0.2,0.3-0.2,0.4
		c0,0.3,0.1,0.4,0.2,0.4c0.3-0.3,0.5-0.6,0.5-1c0.1-0.4,0.3-0.5,0.7-0.2c0-0.7,0.3-1.2,0.9-1.6c0.6-0.3,1.1-0.7,1.4-1.1
		c0.1,1.7,0.2,3.6,0.1,5.6c-0.1,2.1-0.2,4.1-0.3,6.2c-0.1,2-0.2,3.9-0.3,5.8c-0.1,1.8,0,3.3,0.1,4.6c-0.3,0.4-0.5,1-0.5,1.7
		c-0.1,0.7,0,1.3,0.3,1.7c-0.7,4-1.2,8.5-1.6,13.3c-0.3,4.8-0.7,9.6-0.9,14.3h0.2c-0.7,2-1,4-0.9,6.1c0.1,2.1,0,3.9-0.1,5.4
		c0-0.1,0-0.3,0-0.6c0-0.3-0.1-0.3-0.2,0c-0.1,1.5-0.2,2.9-0.2,4.1c0,1.2-0.1,2.3-0.4,3.4c0.3,0.1,0.4,0.1,0.3-0.2
		c-0.1-0.3,0-0.3,0.3-0.2v0.6c-0.1,0-0.2,0-0.2-0.1c0-0.1-0.1,0-0.4,0.1c0.1,0.3,0.2,0.4,0.1,0.4c-0.1,0-0.1,0.1-0.1,0.4h0.6
		c-0.8,2-0.9,4-0.2,6.1l-0.4-0.4c0,0.7,0,1.2,0.1,1.5c0.1,0.3,0,0.8-0.1,1.5c0.3,0,0.4-0.1,0.4-0.2c0-0.1,0.1-0.1,0.2,0.2
		c0.1,0,0.1,0,0.2,0c-0.1,0.4-0.1,0.8,0,1c0.1,0.3,0.2,0.6,0.2,0.8c-0.3,0.1-0.3,0.1-0.2-0.2c0.1-0.3,0.1-0.4-0.2-0.4
		c-0.3,0.4-0.2,0.7,0.2,0.9c0.3,0.2,0.5,0.4,0.5,0.7c0.1-0.1,0.2-0.2,0.4-0.2c0.4,0.1,0.5,0.5,0.2,1c0.4,0.4,0.9,0.7,1.4,0.9
		c0.5,0.2,0.8,0.5,0.9,0.9h-0.2c0.3,0.3,0.4,0.3,0.3,0.2c-0.1-0.1,0-0.2,0.3-0.2v0.6c1,0.3,1.5,0.1,1.7-0.4c0.6,0.3,1,0.3,1.5,0.2
		c0.4-0.1,0.8-0.3,1-0.6c0.3-0.3,0.6-0.6,0.9-0.8c0.3-0.3,0.7-0.3,0.9-0.2c0.1-0.3,0.2-0.5,0.1-0.5c-0.1-0.1,0-0.2,0.1-0.3
		c0.3-0.1,0.3-0.1,0.2,0.2c-0.1,0.3-0.1,0.4,0.2,0.2v-0.6c0.3,0.3,0.3,0.3,0.2,0.2c-0.1-0.1-0.1-0.3,0.2-0.4
		c0.1-0.1,0.2-0.1,0.3-0.1c0,0,0,0,0,0c-0.3-0.1-0.3-0.2,0-0.5c0.4-0.1,0.6-0.4,0.5-0.7c-0.1-0.3,0-0.6,0.3-0.7
		c0,0.8,0.1,1.3,0.4,1.5c-0.1-0.6-0.1-1.3,0-2.3c0.4,0.1,0.7,0,0.7-0.3c0.1-0.3,0.2-0.4,0.5-0.1c-0.3,0-0.4,0.2-0.4,0.6
		c0,0.4,0.1,0.5,0.4,0.2c0.1-0.6,0.3-1.3,0.4-2.3c0.1-1,0.6-1.3,1.5-1c-0.1-0.3-0.2-0.6-0.1-0.8c0.1-0.3,0-0.6-0.3-0.8
		c0.4-0.3,0.6-0.5,0.4-0.6c0.3,0,0.6,0.1,0.8,0.4c-0.3-0.3-0.3-0.5,0-0.6c0.3-0.1,0.3-0.3,0-0.6c0.4-0.1,0.6-0.5,0.6-1
		c0-0.6,0.1-0.8,0.4-0.6c-0.1-0.1-0.1-0.3,0-0.6c0.1-0.3,0.3-0.5,0.4-0.6c0,0.3,0,0.4,0.1,0.4c0.1,0,0.1-0.1,0.1-0.2
		c-0.1-0.7,0.1-1.4,0.8-2.2c0.7-0.8,0.8-1.5,0.4-2.2c0.4,0.3,0.6,0.3,0.4,0c-0.1-0.3-0.1-0.4,0.1-0.6c0,0.1,0.1,0.2,0.3,0.4
		c0.3-0.4,0.3-0.9,0-1.5c0.1,0,0.4-0.2,0.8-0.6c-0.1,0-0.2-0.1-0.2-0.2c0,0,0-0.1,0-0.1c0.3,0.1,0.3,0.1,0.1-0.2
		c-0.2-0.3-0.2-0.5,0.1-0.5c0,0.3,0.1,0.3,0.2,0c0.1-0.3,0.3-0.3,0.6,0c0.1-0.7,0.1-1.2-0.1-1.4c-0.2-0.2-0.2-0.5,0.1-0.9
		c2.5,0,0.2,0.1,0.1,0.2c-0.1,0.1,0.9,0.2,1.2,0.2c0.1-0.6,0.2-1.1,0.2-1.7c0.6-0.3,0.9-0.8,1-1.6c0.1-0.8,0.3-1.4,0.4-1.8h0.6
		c-0.1-0.1,0-0.4,0.4-0.8c-0.4-0.1-0.6-0.4-0.6-0.8c0.1,0,0.2,0,0.3,0.1c0.1,0.1,0.2,0.1,0.5,0.1c0.1-0.4-0.4-0.6-0.7-0.7
		c0.2-0.1,0.3-0.2,0.3-0.4c1,0,1.3-0.3,0.9-0.9c-0.4-0.6-0.2-0.9,0.3-0.9c-0.1,0.1-0.1,0.3,0.2,0.6c0.1-0.3,0.1-0.7-0.1-1.3
		c-0.2-0.6,0-0.8,0.7-0.6c0-1.4,0.3-2.2,1-2.3c0-0.3,0-0.4-0.1-0.4c-0.1,0-0.1-0.1-0.1-0.4c0.6-0.3,0.9-0.9,1-1.8
		c0.1-0.9,0.5-1.4,1-1.4c-0.1-0.7,0-1.2,0.5-1.4c0.5-0.2,0.6-0.6,0.3-1.2c0.3-0.4,0.7-0.9,1.4-1.5c0.6-0.6,0.9-1.2,0.7-1.9
		c0.7,0,1.2-0.3,1.4-0.9c0.2-0.6,0.3-1.1,0.3-1.6c0,0-0.1,0-0.1,0c0.8-1,2.3-2,3.3-2.9c1-1,0.8-2,1.2-3.1c0.4,0,0.8-0.2,1-0.7
		c0.3-0.5,0.6-0.7,1-0.5c0-0.3-0.1-0.5-0.2-0.6c-0.1-0.1-0.1-0.2,0.2-0.2c0,0.3,0.1,0.4,0.2,0.4c0.1-0.3,0.2-0.6,0.3-0.8
		c0.1-0.3,0.2-0.5,0.5-0.6l0.4,0.4c0.1-0.3,0.2-0.5,0.3-0.7c0.1-0.2,0.2-0.1,0.3,0.3c0-0.3,0.1-0.5,0.2-0.6c0.1-0.1,0.3-0.3,0.4-0.6
		c0,0.4,0.1,0.6,0.2,0.6c0.1-0.3,0.3-0.3,0.6-0.2c0-0.3,0-0.5,0.1-0.5c0.1-0.1,0.2-0.2,0.3-0.5c0.3,0.7,0.5,1.6,0.5,2.6
		c0.1,1,0.2,1.6,0.3,1.8c0.3,3.6-1.4,11.5-1.3,14.8c0.1,3.3,0.2,6.3,0.2,9.1h0.2c0.1,0.6,0.1,1.1-0.2,1.7c0.3,1.3,0.5,2.9,0.5,4.8
		c0.1,2,0,3.7-0.3,5.2c0.3,0.3,0.5,0.8,0.5,1.5c0.1,0.7,0.1,1.4,0,2.1c-0.1,0.7-0.1,1.3-0.1,1.9c0,0.6,0.1,0.8,0.4,0.8
		c-0.4,0.6-0.5,1.1-0.3,1.7c0.2,0.6,0.2,1-0.1,1.3h0.6c0.1,0.4,0.1,0.7,0,0.8c-0.1,0.1-0.3,0.3-0.4,0.6c0.4-0.1,0.6,0.1,0.6,0.8
		c-0.1,0-0.2,0-0.2-0.1c0-0.1-0.1-0.1-0.2-0.1c0.1,1.3,0.3,2.6,0.5,4c0.2,1.4,0.2,2.9-0.1,4.4c0.3,0.1,0.4,0.1,0.3-0.2
		c-0.1-0.3,0-0.4,0.3-0.4c-0.1,0.3-0.1,0.5,0.1,0.5c0.2,0.1,0.2,0.2,0.1,0.5c-0.6,0.3-0.7,0.7-0.3,1.1c0.3,0.5,0.3,1-0.1,1.6
		c0.6,1.1,0.9,2.3,0.9,3.6c0.1,1.3,0.2,2.4,0.5,3.6c0-0.1,0.1-0.2,0.4-0.2c-0.1,0.6-0.1,1,0.2,1.5c0.3,0.4,0.5,1.1,0.6,2.1
		c0.4-0.1,0.7,0.1,0.8,0.6c0.1,0.5,0.5,0.8,0.9,1c0.2,0.4,0.5,0.7,0.8,0.9c0.5,0.3,0.9,0.8,1.4,1.5c0-0.3,0.1-0.4,0.4-0.4
		c0,0.6,0.1,0.8,0.2,0.8c0.1-0.4,0.3-0.6,0.6-0.4c0.3,0.1,0.6,0.3,0.8,0.6c0.3-0.3,0.5-0.4,0.6-0.3c0.1,0.1,0.3,0,0.6-0.3
		c0,0.3,0.1,0.5,0.2,0.6c0.4-0.1,0.9-0.3,1.4-0.5c0.5-0.2,0.9-0.2,1.2-0.1c2.5-0.6,6-9.6,6-9.6s0.2-1.4,0.5-2.4
		C187,157.4,186.2,158.5,186.2,157.2z M174.7,109.9c0.4,0,0.6,0.2,0.4,0.6h-0.6C174.6,110.4,174.7,110.2,174.7,109.9z M136.2,63.3
		v0.8c-0.3,0-0.4-0.2-0.3-0.5c0.1-0.3,0-0.5-0.3-0.3c0.1-0.3,0.2-0.3,0.2-0.2C135.8,63.2,135.9,63.3,136.2,63.3z M135.8,60.2
		c0,0.1,0,0.1,0.1,0.1c0,0,0,0-0.1,0c-0.3,0-0.4-0.1-0.4-0.4C135.6,59.9,135.8,60,135.8,60.2z M134.7,59.3h0.2v0.6h-0.2V59.3z
		 M134.2,57.1c0.1,0.1,0.1-0.1,0.1-0.5c0.3,0.3,0.3,0.5,0.1,0.6c-0.2,0.1-0.2,0.4-0.1,0.6c-0.1,0-0.2-0.1-0.2-0.4
		c-0.1,0-0.2,0.1-0.2,0.4v-0.6h-0.2C134,57.1,134.1,57,134.2,57.1z M72.8,210.9h-0.2v-0.4c0.1,0,0.2,0.1,0.3,0.2
		C72.9,210.7,72.9,210.8,72.8,210.9z M73,210.9c0-0.1,0-0.1,0-0.1c0,0,0,0,0,0c0.1,0.2,0.2,0.2,0.3,0.2c0,0.1,0,0.2,0.1,0.4
		C73.2,211.3,73,211.2,73,210.9z M75.7,207.9c-0.1-0.2-0.2-0.2-0.3-0.1c0-0.3-0.1-0.4-0.4-0.4c0.1-0.3,0.2-0.3,0.3-0.1
		c0.1,0.2,0.2,0.2,0.5,0.1c0,0.1,0.1,0.3,0.2,0.4C75.8,208,75.7,208.1,75.7,207.9z M76.1,207.1c-0.5,0-0.6-0.1-0.5-0.2
		c0.1-0.1,0.3-0.1,0.4,0.1C76,207.1,76,207.1,76.1,207.1z M98.1,112.3c-0.1,0.2-0.3,0.4-0.4,0.5c-0.1-0.1-0.1-0.3,0.1-0.4
		c0.2-0.1,0.2-0.3,0.1-0.6C98.2,111.9,98.3,112.1,98.1,112.3z M104.4,98.7c0,0.1,0,0.2,0.1,0.3c0,0,0,0-0.1-0.1
		c-0.1-0.1-0.2-0.2-0.2-0.5C104.2,98.1,104.3,98.2,104.4,98.7z M104.2,99.2c0.2-0.1,0.3-0.2,0.3-0.2
		C104.5,99.3,104.4,99.4,104.2,99.2z M105,96.4c0,0.1,0,0.1,0,0.2c0,0-0.1,0-0.2,0C105,96.3,105,96.2,105,96.4z M105.2,97.2
		c0,0.1-0.1,0.2-0.4,0.2c0-0.3,0.1-0.5,0.2-0.6c0.1-0.1,0.1-0.1,0.1-0.1c0.1,0.1,0.2,0.1,0.4,0.1C105.3,96.9,105.2,97,105.2,97.2z
		 M107.2,93.6C107.2,93.6,107.2,93.6,107.2,93.6c0,0,0,0-0.1,0c0,0.1,0,0.2-0.1,0.2c-0.1,0-0.1-0.1-0.1-0.2
		C107.2,93.3,107.3,93.3,107.2,93.6z M109.7,88.9c-0.3,0.2-0.5,0.2-0.5-0.1c0-0.3,0.1-0.4,0.2-0.3c0.1,0.1,0.3,0,0.4-0.1
		C110.1,88.5,110.1,88.7,109.7,88.9z M120.7,59.1c0-0.3,0.4-0.4,1.3-0.4C121.4,59,121,59.1,120.7,59.1z M123.4,154
		c-0.1-0.1-0.3-0.2-0.4-0.2c0.3-0.3,0.3-0.5,0.2-0.5c-0.1-0.1-0.2-0.2-0.2-0.5c0.1,0,0.2,0.1,0.2,0.4c0,0.1,0,0.1,0.1,0
		c0.1-0.1,0.2-0.1,0.3,0c0,0.1-0.1,0.3-0.2,0.4c-0.1,0.1,0,0.2,0.4,0.2C123.7,154.1,123.6,154.2,123.4,154z M140.1,134.7
		c-0.1,0.2-0.2,0.3-0.3,0.3c-0.3,0-0.3-0.1-0.1-0.2c0.2-0.1,0.2-0.3,0.1-0.4C140,134.4,140.1,134.5,140.1,134.7z M141.6,132.1
		c-0.4-0.3-0.7-0.3-0.8,0c-0.3-0.3-0.2-0.4,0.1-0.3c0.3,0.1,0.5,0,0.3-0.3C141.5,131.7,141.6,131.9,141.6,132.1z M172.2,166.2
		c-0.2,0.1-0.2,0-0.1-0.3C172.1,166,172.2,166.1,172.2,166.2C172.2,166.2,172.2,166.2,172.2,166.2z M174.2,130.8
		c0-0.4,0.2-0.6,0.6-0.6C174.9,130.6,174.7,130.8,174.2,130.8z M174.6,141c0.1-0.2,0-0.3-0.1-0.3c0-0.3,0.1-0.3,0.2-0.1
		c0.1,0.2,0.2,0.2,0.2-0.1c0.3,0,0.3,0.1,0.1,0.2c-0.2,0.1-0.2,0.3-0.1,0.6C174.6,141.3,174.5,141.2,174.6,141z M175.5,145
		c0.3,0,0.3,0.1,0.1,0.4c-0.1,0.1-0.1,0.2-0.1,0.3C175.4,145.5,175.4,145.3,175.5,145z M176.4,147.8c0,0.1,0.1,0.2,0.2,0.3
		c0.1,0.1,0.1,0.1-0.2,0.1C176.4,148,176.4,147.9,176.4,147.8z M176.3,151.1v0.2h-0.4c0.3-0.3,0.4-0.6,0.4-1c0,0.3,0.1,0.5,0.2,0.5
		c0.1,0.1,0.2,0.2,0.2,0.5C176.5,151.3,176.3,151.2,176.3,151.1z M176.8,153.4c-0.3-0.1-0.3-0.3-0.1-0.4c0.2-0.1,0.2-0.3,0.1-0.6
		c0.1,0.1,0.2,0.4,0.2,0.8C176.8,153.2,176.8,153.3,176.8,153.4z M184.4,159c0,0.2-0.1,0.4-0.1,0.5
		C184.3,159.6,184.4,159.3,184.4,159z"/>
	<path class="st0" d="M120.5,151.7c0,0.1,0,0.1,0,0.2C120.5,151.9,120.5,151.8,120.5,151.7z"/>
	<path class="st0" d="M367.6,165.3C367.5,165.3,367.7,165.4,367.6,165.3L367.6,165.3z"/>
	<path class="st0" d="M241,137.7C241,137.7,241,137.6,241,137.7C241,137.6,241,137.6,241,137.7C241,137.6,241,137.7,241,137.7z"/>
	<path class="st0" d="M601.1,99.1L601.1,99.1C601.1,99.1,601,99.1,601.1,99.1C601,99.1,601,99.1,601.1,99.1z"/>
	<path class="st0" d="M595.9,90.8c-0.1,0.9-0.2,1.8-0.1,2.8c0.1,0.9,0.2,1.9,0.9,2.8c0.6,0.7,1.2,1.3,1.8,2c0.1,0.1,0.2,0.2,0.3,0.2
		c0.3,0.3,0.5,0.5,0.8,0.5c0.1,0,0.6,0,1.2,0c0,0,0.1,0,0.1,0c0,0,0,0,0,0c0,0,0.1,0,0.1,0l0,0c0,0,0.1,0,0.1,0c0.4,0,0.8-0.1,1-0.2
		c1.3-0.6,0.8-0.8,1.7-1c1.4-0.2,2-0.3,3-2.8c0.4-0.9,0.6-0.7,0.8-1.2c0,0-0.1-0.2,0-0.1c0.1-0.8,0.6-1.9,0.6-2.8
		c0.1-1.1-0.1-2-0.6-3.6c-0.2-0.6-0.6-1.2-1-1.7c0-0.1,0-0.1,0-0.2c0,0-0.1,0.1-0.1,0.1c-0.2-0.2-0.3-0.3-0.5-0.5c0,0,0,0,0,0
		c-0.2-0.1-0.3-0.2-0.4-0.4c-0.1,0-0.2,0-0.2,0c-0.1-0.1-0.2-0.1-0.3-0.2c0.1-0.1,0.3-0.2,0.2-0.4l0.5,0.1c0.1-0.1-0.4-0.6,0.1-0.4
		c-0.8-0.7-1.9-1-2.9-1.2c0.1,0.1,0.3,0.2,0.2,0.2c-0.5-0.1-0.4-0.2-0.5-0.3c-0.4,0-0.4,0.2-0.6,0.4c-0.7-0.3-0.8-0.1-1.5-0.3
		l0.1,0.2c-0.5-0.1-0.5,0.3-1,0.3c0,0-0.2-0.3-0.6,0c0.1-0.1-1.7,1.3-1.9,2l-0.2-0.1c0,0.4-0.6,1.2-0.5,1.6l-0.1,0l0,0.7
		c-0.1,0.3-0.4,0.1-0.3,0.1c-0.3,0.7-0.3,1.3-0.5,1.7C596,89.5,596,90.2,595.9,90.8z"/>
</g>
</svg>
